%TF.GenerationSoftware,KiCad,Pcbnew,9.0.7*%
%TF.CreationDate,2026-01-18T11:35:39-05:00*%
%TF.ProjectId,digirig_icom,64696769-7269-4675-9f69-636f6d2e6b69,rev?*%
%TF.SameCoordinates,Original*%
%TF.FileFunction,Copper,L2,Inr*%
%TF.FilePolarity,Positive*%
%FSLAX46Y46*%
G04 Gerber Fmt 4.6, Leading zero omitted, Abs format (unit mm)*
G04 Created by KiCad (PCBNEW 9.0.7) date 2026-01-18 11:35:39*
%MOMM*%
%LPD*%
G01*
G04 APERTURE LIST*
%TA.AperFunction,ComponentPad*%
%ADD10R,1.500000X1.500000*%
%TD*%
%TA.AperFunction,ComponentPad*%
%ADD11C,1.500000*%
%TD*%
%TA.AperFunction,ComponentPad*%
%ADD12C,0.400000*%
%TD*%
%TA.AperFunction,ComponentPad*%
%ADD13R,1.600000X1.600000*%
%TD*%
%TA.AperFunction,ComponentPad*%
%ADD14C,1.600000*%
%TD*%
%TA.AperFunction,ComponentPad*%
%ADD15C,4.000000*%
%TD*%
%TA.AperFunction,ViaPad*%
%ADD16C,0.600000*%
%TD*%
%TA.AperFunction,Conductor*%
%ADD17C,0.200000*%
%TD*%
G04 APERTURE END LIST*
D10*
%TO.N,/DATA_H*%
%TO.C,J2*%
X50480000Y-26600000D03*
D11*
%TO.N,/H_GND*%
X49210000Y-29140000D03*
%TO.N,/MIC_H*%
X47940000Y-26600000D03*
%TO.N,/H_GND*%
X46670000Y-29140000D03*
%TO.N,/PTT_H*%
X45400000Y-26600000D03*
%TO.N,/M8V_SW_H*%
X44130000Y-29140000D03*
%TO.N,/MIC_UD_H*%
X42860000Y-26600000D03*
%TO.N,+8V*%
X41590000Y-29140000D03*
%TD*%
D10*
%TO.N,/DATA_RADIO*%
%TO.C,J1*%
X30980000Y-26600000D03*
D11*
%TO.N,GND*%
X29710000Y-29140000D03*
%TO.N,/MIC_RADIO*%
X28440000Y-26600000D03*
%TO.N,GND*%
X27170000Y-29140000D03*
%TO.N,/PTT_RADIO*%
X25900000Y-26600000D03*
%TO.N,GND*%
X24630000Y-29140000D03*
%TO.N,/MIC_UD_RADIO*%
X23360000Y-26600000D03*
%TO.N,+8V*%
X22090000Y-29140000D03*
%TD*%
D12*
%TO.N,N/C*%
%TO.C,U1*%
X25200000Y-37175000D03*
X26675000Y-37175000D03*
X25200000Y-38650000D03*
X23725000Y-37175000D03*
X25200000Y-35700000D03*
%TD*%
D13*
%TO.N,+5V*%
%TO.C,J3*%
X27300000Y-56500000D03*
D14*
%TO.N,Net-(J3-D-)*%
X24800000Y-56500000D03*
%TO.N,Net-(J3-D+)*%
X24800000Y-58500000D03*
%TO.N,GND*%
X27300000Y-58500000D03*
D15*
X32050000Y-61360000D03*
X20050000Y-61360000D03*
%TD*%
D16*
%TO.N,+3V3*%
X38100000Y-48700000D03*
X23300000Y-41100000D03*
X24400000Y-46200000D03*
X57500000Y-36500000D03*
X25950000Y-42200000D03*
X34600000Y-48600000D03*
X31800000Y-49000000D03*
X41100000Y-50700000D03*
X29120000Y-35100000D03*
X35000000Y-41300000D03*
X37500000Y-36500000D03*
X38587500Y-43812500D03*
X31900000Y-46400000D03*
%TO.N,GND*%
X53200000Y-36000000D03*
X21100000Y-52000000D03*
X34500000Y-31200000D03*
X33500000Y-50600000D03*
X25200000Y-47300000D03*
X55100000Y-33300000D03*
X52450000Y-48250000D03*
X26300000Y-63600000D03*
X47700000Y-38100000D03*
X50600000Y-45700000D03*
X25000000Y-32300000D03*
X48900000Y-41600000D03*
X14900000Y-57300000D03*
X46200000Y-18100000D03*
X43400000Y-43600000D03*
X20200000Y-46400000D03*
X33300000Y-51500000D03*
X45200000Y-52700000D03*
X32000000Y-40000000D03*
X24850000Y-40750000D03*
X26800000Y-16800000D03*
X38700000Y-28900000D03*
X58300000Y-24900000D03*
X58200000Y-53100000D03*
X35300000Y-39500000D03*
X35800000Y-61600000D03*
X36900000Y-26900000D03*
X34900000Y-46200000D03*
X49200000Y-49700000D03*
X21200000Y-26900000D03*
X28000000Y-51500000D03*
X37000000Y-44100000D03*
X47700000Y-43600000D03*
X15300000Y-23500000D03*
X39100000Y-46200000D03*
X29800000Y-47000000D03*
X47000000Y-37200000D03*
X33000000Y-29000000D03*
X51350327Y-43562108D03*
%TO.N,/DVDD*%
X42750000Y-47850000D03*
X35750000Y-50900000D03*
%TO.N,/LOL*%
X30900000Y-35000000D03*
X21200000Y-38300000D03*
%TO.N,Net-(C16-Pad2)*%
X33000000Y-33800000D03*
X36000000Y-33200000D03*
%TO.N,/SCL*%
X41800000Y-48200000D03*
X27990000Y-33700000D03*
%TO.N,/SDA*%
X27063514Y-33700000D03*
X41700000Y-49100000D03*
%TO.N,/S4*%
X40900000Y-39500000D03*
X42500000Y-41800000D03*
%TO.N,/S3*%
X42700000Y-42600000D03*
X55300000Y-42400000D03*
%TO.N,/S2*%
X39400000Y-43700000D03*
X54700000Y-43300000D03*
%TO.N,/S1*%
X54600000Y-40800000D03*
X41700000Y-42800000D03*
%TO.N,/PTT_RADIO*%
X52634857Y-39581158D03*
%TO.N,/MIC_RADIO*%
X54600000Y-37400000D03*
%TO.N,/DATA_RADIO*%
X47600000Y-41700000D03*
%TO.N,/PTT_H*%
X58071500Y-39256854D03*
X56000000Y-44900000D03*
%TO.N,/MIC_H*%
X54800000Y-21800000D03*
%TO.N,/DATA_H*%
X46800000Y-35900000D03*
X52400000Y-37800000D03*
%TO.N,/M8V_SW_H*%
X39300000Y-47100000D03*
%TO.N,/MIC_MCU*%
X41800000Y-31700000D03*
X49500000Y-34600000D03*
%TO.N,/MIC_UD_MCU*%
X37700000Y-38000000D03*
X49300000Y-48350000D03*
%TO.N,Net-(CON2-R)*%
X43000000Y-62600000D03*
X18600000Y-39900000D03*
%TO.N,/LED*%
X30800000Y-45300000D03*
X56900000Y-53400000D03*
%TD*%
D17*
%TO.N,/S2*%
X39400000Y-43700000D02*
X39901000Y-44201000D01*
X39901000Y-44201000D02*
X53799000Y-44201000D01*
X53799000Y-44201000D02*
X54700000Y-43300000D01*
%TO.N,/S1*%
X41700000Y-42800000D02*
X42101000Y-43201000D01*
X42948943Y-43201000D02*
X43150943Y-42999000D01*
X42101000Y-43201000D02*
X42948943Y-43201000D01*
X52401000Y-42999000D02*
X54600000Y-40800000D01*
X43150943Y-42999000D02*
X52401000Y-42999000D01*
%TD*%
%TA.AperFunction,Conductor*%
%TO.N,GND*%
G36*
X59942539Y-12520185D02*
G01*
X59988294Y-12572989D01*
X59999500Y-12624500D01*
X59999500Y-67375500D01*
X59979815Y-67442539D01*
X59927011Y-67488294D01*
X59875500Y-67499500D01*
X12624500Y-67499500D01*
X12557461Y-67479815D01*
X12511706Y-67427011D01*
X12500500Y-67375500D01*
X12500500Y-64893713D01*
X13649500Y-64893713D01*
X13649500Y-65106286D01*
X13682753Y-65316239D01*
X13748444Y-65518414D01*
X13844951Y-65707820D01*
X13969890Y-65879786D01*
X14120213Y-66030109D01*
X14292179Y-66155048D01*
X14292181Y-66155049D01*
X14292184Y-66155051D01*
X14481588Y-66251557D01*
X14683757Y-66317246D01*
X14893713Y-66350500D01*
X14893714Y-66350500D01*
X15106286Y-66350500D01*
X15106287Y-66350500D01*
X15316243Y-66317246D01*
X15518412Y-66251557D01*
X15707816Y-66155051D01*
X15729789Y-66139086D01*
X15879786Y-66030109D01*
X15879788Y-66030106D01*
X15879792Y-66030104D01*
X16030104Y-65879792D01*
X16030106Y-65879788D01*
X16030109Y-65879786D01*
X16155048Y-65707820D01*
X16155047Y-65707820D01*
X16155051Y-65707816D01*
X16251557Y-65518412D01*
X16317246Y-65316243D01*
X16350500Y-65106287D01*
X16350500Y-64893713D01*
X56149500Y-64893713D01*
X56149500Y-65106286D01*
X56182753Y-65316239D01*
X56248444Y-65518414D01*
X56344951Y-65707820D01*
X56469890Y-65879786D01*
X56620213Y-66030109D01*
X56792179Y-66155048D01*
X56792181Y-66155049D01*
X56792184Y-66155051D01*
X56981588Y-66251557D01*
X57183757Y-66317246D01*
X57393713Y-66350500D01*
X57393714Y-66350500D01*
X57606286Y-66350500D01*
X57606287Y-66350500D01*
X57816243Y-66317246D01*
X58018412Y-66251557D01*
X58207816Y-66155051D01*
X58229789Y-66139086D01*
X58379786Y-66030109D01*
X58379788Y-66030106D01*
X58379792Y-66030104D01*
X58530104Y-65879792D01*
X58530106Y-65879788D01*
X58530109Y-65879786D01*
X58655048Y-65707820D01*
X58655047Y-65707820D01*
X58655051Y-65707816D01*
X58751557Y-65518412D01*
X58817246Y-65316243D01*
X58850500Y-65106287D01*
X58850500Y-64893713D01*
X58817246Y-64683757D01*
X58751557Y-64481588D01*
X58655051Y-64292184D01*
X58655049Y-64292181D01*
X58655048Y-64292179D01*
X58530109Y-64120213D01*
X58379786Y-63969890D01*
X58207820Y-63844951D01*
X58018414Y-63748444D01*
X58018413Y-63748443D01*
X58018412Y-63748443D01*
X57816243Y-63682754D01*
X57816241Y-63682753D01*
X57816240Y-63682753D01*
X57654957Y-63657208D01*
X57606287Y-63649500D01*
X57393713Y-63649500D01*
X57345042Y-63657208D01*
X57183760Y-63682753D01*
X56981585Y-63748444D01*
X56792179Y-63844951D01*
X56620213Y-63969890D01*
X56469890Y-64120213D01*
X56344951Y-64292179D01*
X56248444Y-64481585D01*
X56182753Y-64683760D01*
X56149500Y-64893713D01*
X16350500Y-64893713D01*
X16317246Y-64683757D01*
X16251557Y-64481588D01*
X16155051Y-64292184D01*
X16155049Y-64292181D01*
X16155048Y-64292179D01*
X16030109Y-64120213D01*
X15879786Y-63969890D01*
X15707820Y-63844951D01*
X15518414Y-63748444D01*
X15518413Y-63748443D01*
X15518412Y-63748443D01*
X15316243Y-63682754D01*
X15316241Y-63682753D01*
X15316240Y-63682753D01*
X15154957Y-63657208D01*
X15106287Y-63649500D01*
X14893713Y-63649500D01*
X14845042Y-63657208D01*
X14683760Y-63682753D01*
X14481585Y-63748444D01*
X14292179Y-63844951D01*
X14120213Y-63969890D01*
X13969890Y-64120213D01*
X13844951Y-64292179D01*
X13748444Y-64481585D01*
X13682753Y-64683760D01*
X13649500Y-64893713D01*
X12500500Y-64893713D01*
X12500500Y-61219598D01*
X17550000Y-61219598D01*
X17550000Y-61500401D01*
X17581437Y-61779412D01*
X17581439Y-61779424D01*
X17643921Y-62053178D01*
X17643922Y-62053180D01*
X17736662Y-62318217D01*
X17858492Y-62571200D01*
X18007884Y-62808956D01*
X18114187Y-62942257D01*
X19077912Y-61978532D01*
X19172829Y-62109175D01*
X19300825Y-62237171D01*
X19431466Y-62332086D01*
X18467741Y-63295810D01*
X18467741Y-63295811D01*
X18601043Y-63402115D01*
X18838799Y-63551507D01*
X19091782Y-63673337D01*
X19356819Y-63766077D01*
X19356821Y-63766078D01*
X19630575Y-63828560D01*
X19630587Y-63828562D01*
X19909598Y-63859999D01*
X19909600Y-63860000D01*
X20190400Y-63860000D01*
X20190401Y-63859999D01*
X20469412Y-63828562D01*
X20469424Y-63828560D01*
X20743178Y-63766078D01*
X20743180Y-63766077D01*
X21008217Y-63673337D01*
X21261200Y-63551507D01*
X21498956Y-63402116D01*
X21632257Y-63295810D01*
X20668533Y-62332086D01*
X20799175Y-62237171D01*
X20927171Y-62109175D01*
X21022086Y-61978533D01*
X21985810Y-62942257D01*
X22092116Y-62808956D01*
X22241507Y-62571200D01*
X22363337Y-62318217D01*
X22456077Y-62053180D01*
X22456078Y-62053178D01*
X22518560Y-61779424D01*
X22518562Y-61779412D01*
X22549999Y-61500401D01*
X22550000Y-61500399D01*
X22550000Y-61219600D01*
X22549999Y-61219598D01*
X29550000Y-61219598D01*
X29550000Y-61500401D01*
X29581437Y-61779412D01*
X29581439Y-61779424D01*
X29643921Y-62053178D01*
X29643922Y-62053180D01*
X29736662Y-62318217D01*
X29858492Y-62571200D01*
X30007884Y-62808956D01*
X30114187Y-62942257D01*
X31077912Y-61978532D01*
X31172829Y-62109175D01*
X31300825Y-62237171D01*
X31431466Y-62332086D01*
X30467741Y-63295810D01*
X30467741Y-63295811D01*
X30601043Y-63402115D01*
X30838799Y-63551507D01*
X31091782Y-63673337D01*
X31356819Y-63766077D01*
X31356821Y-63766078D01*
X31630575Y-63828560D01*
X31630587Y-63828562D01*
X31909598Y-63859999D01*
X31909600Y-63860000D01*
X32190400Y-63860000D01*
X32190401Y-63859999D01*
X32469412Y-63828562D01*
X32469424Y-63828560D01*
X32743178Y-63766078D01*
X32743180Y-63766077D01*
X33008217Y-63673337D01*
X33261200Y-63551507D01*
X33498956Y-63402116D01*
X33632257Y-63295810D01*
X32668533Y-62332086D01*
X32799175Y-62237171D01*
X32927171Y-62109175D01*
X33022086Y-61978533D01*
X33985810Y-62942257D01*
X34092116Y-62808956D01*
X34241507Y-62571200D01*
X34265609Y-62521153D01*
X42199500Y-62521153D01*
X42199500Y-62678846D01*
X42230261Y-62833489D01*
X42230264Y-62833501D01*
X42290602Y-62979172D01*
X42290609Y-62979185D01*
X42378210Y-63110288D01*
X42378213Y-63110292D01*
X42489707Y-63221786D01*
X42489711Y-63221789D01*
X42620814Y-63309390D01*
X42620827Y-63309397D01*
X42693296Y-63339414D01*
X42766503Y-63369737D01*
X42921153Y-63400499D01*
X42921156Y-63400500D01*
X42921158Y-63400500D01*
X43078844Y-63400500D01*
X43078845Y-63400499D01*
X43233497Y-63369737D01*
X43379179Y-63309394D01*
X43510289Y-63221789D01*
X43621789Y-63110289D01*
X43709394Y-62979179D01*
X43769737Y-62833497D01*
X43800500Y-62678842D01*
X43800500Y-62521158D01*
X43800500Y-62521155D01*
X43800499Y-62521153D01*
X43782907Y-62432708D01*
X43779064Y-62413389D01*
X47899500Y-62413389D01*
X47899500Y-62586610D01*
X47914108Y-62678846D01*
X47926598Y-62757701D01*
X47980127Y-62922445D01*
X48058768Y-63076788D01*
X48160586Y-63216928D01*
X48283072Y-63339414D01*
X48423212Y-63441232D01*
X48577555Y-63519873D01*
X48742299Y-63573402D01*
X48913389Y-63600500D01*
X48913390Y-63600500D01*
X49086610Y-63600500D01*
X49086611Y-63600500D01*
X49257701Y-63573402D01*
X49422445Y-63519873D01*
X49576788Y-63441232D01*
X49716928Y-63339414D01*
X49839414Y-63216928D01*
X49941232Y-63076788D01*
X50019873Y-62922445D01*
X50073402Y-62757701D01*
X50100500Y-62586611D01*
X50100500Y-62413389D01*
X50073402Y-62242299D01*
X50019873Y-62077555D01*
X49941232Y-61923212D01*
X49839414Y-61783072D01*
X49716928Y-61660586D01*
X49576788Y-61558768D01*
X49422445Y-61480127D01*
X49257701Y-61426598D01*
X49257699Y-61426597D01*
X49257698Y-61426597D01*
X49126271Y-61405781D01*
X49086611Y-61399500D01*
X48913389Y-61399500D01*
X48873728Y-61405781D01*
X48742302Y-61426597D01*
X48577552Y-61480128D01*
X48423211Y-61558768D01*
X48343256Y-61616859D01*
X48283072Y-61660586D01*
X48283070Y-61660588D01*
X48283069Y-61660588D01*
X48160588Y-61783069D01*
X48160588Y-61783070D01*
X48160586Y-61783072D01*
X48147236Y-61801447D01*
X48058768Y-61923211D01*
X47980128Y-62077552D01*
X47926597Y-62242302D01*
X47899500Y-62413389D01*
X43779064Y-62413389D01*
X43769738Y-62366508D01*
X43769737Y-62366507D01*
X43769737Y-62366503D01*
X43760237Y-62343568D01*
X43709397Y-62220827D01*
X43709390Y-62220814D01*
X43621789Y-62089711D01*
X43621786Y-62089707D01*
X43510292Y-61978213D01*
X43510288Y-61978210D01*
X43379185Y-61890609D01*
X43379172Y-61890602D01*
X43233501Y-61830264D01*
X43233489Y-61830261D01*
X43078845Y-61799500D01*
X43078842Y-61799500D01*
X42921158Y-61799500D01*
X42921155Y-61799500D01*
X42766510Y-61830261D01*
X42766498Y-61830264D01*
X42620827Y-61890602D01*
X42620814Y-61890609D01*
X42489711Y-61978210D01*
X42489707Y-61978213D01*
X42378213Y-62089707D01*
X42378210Y-62089711D01*
X42290609Y-62220814D01*
X42290602Y-62220827D01*
X42230264Y-62366498D01*
X42230261Y-62366510D01*
X42199500Y-62521153D01*
X34265609Y-62521153D01*
X34294450Y-62461264D01*
X34363337Y-62318217D01*
X34456077Y-62053180D01*
X34456078Y-62053178D01*
X34518560Y-61779424D01*
X34518562Y-61779412D01*
X34549999Y-61500401D01*
X34550000Y-61500399D01*
X34550000Y-61219600D01*
X34549999Y-61219598D01*
X34518562Y-60940587D01*
X34518560Y-60940575D01*
X34456078Y-60666821D01*
X34456077Y-60666819D01*
X34363337Y-60401782D01*
X34241507Y-60148799D01*
X34092115Y-59911043D01*
X33985810Y-59777741D01*
X33022086Y-60741465D01*
X32927171Y-60610825D01*
X32799175Y-60482829D01*
X32668533Y-60387912D01*
X33632257Y-59424187D01*
X33498956Y-59317884D01*
X33261200Y-59168492D01*
X33008217Y-59046662D01*
X32743180Y-58953922D01*
X32743178Y-58953921D01*
X32469424Y-58891439D01*
X32469412Y-58891437D01*
X32190401Y-58860000D01*
X31909598Y-58860000D01*
X31630587Y-58891437D01*
X31630575Y-58891439D01*
X31356821Y-58953921D01*
X31356819Y-58953922D01*
X31091782Y-59046662D01*
X30838799Y-59168492D01*
X30601043Y-59317884D01*
X30467741Y-59424187D01*
X31431466Y-60387912D01*
X31300825Y-60482829D01*
X31172829Y-60610825D01*
X31077912Y-60741466D01*
X30114187Y-59777741D01*
X30007884Y-59911043D01*
X29858492Y-60148799D01*
X29736662Y-60401782D01*
X29643922Y-60666819D01*
X29643921Y-60666821D01*
X29581439Y-60940575D01*
X29581437Y-60940587D01*
X29550000Y-61219598D01*
X22549999Y-61219598D01*
X22518562Y-60940587D01*
X22518560Y-60940575D01*
X22456078Y-60666821D01*
X22456077Y-60666819D01*
X22363337Y-60401782D01*
X22241507Y-60148799D01*
X22092115Y-59911043D01*
X21985810Y-59777741D01*
X21022086Y-60741465D01*
X20927171Y-60610825D01*
X20799175Y-60482829D01*
X20668533Y-60387912D01*
X21632257Y-59424187D01*
X21498956Y-59317884D01*
X21261200Y-59168492D01*
X21008217Y-59046662D01*
X20743180Y-58953922D01*
X20743178Y-58953921D01*
X20469424Y-58891439D01*
X20469412Y-58891437D01*
X20190401Y-58860000D01*
X19909598Y-58860000D01*
X19630587Y-58891437D01*
X19630575Y-58891439D01*
X19356821Y-58953921D01*
X19356819Y-58953922D01*
X19091782Y-59046662D01*
X18838799Y-59168492D01*
X18601043Y-59317884D01*
X18467741Y-59424187D01*
X19431466Y-60387912D01*
X19300825Y-60482829D01*
X19172829Y-60610825D01*
X19077912Y-60741466D01*
X18114187Y-59777741D01*
X18007884Y-59911043D01*
X17858492Y-60148799D01*
X17736662Y-60401782D01*
X17643922Y-60666819D01*
X17643921Y-60666821D01*
X17581439Y-60940575D01*
X17581437Y-60940587D01*
X17550000Y-61219598D01*
X12500500Y-61219598D01*
X12500500Y-56397648D01*
X23499500Y-56397648D01*
X23499500Y-56602351D01*
X23531522Y-56804534D01*
X23594781Y-56999223D01*
X23687715Y-57181613D01*
X23808028Y-57347213D01*
X23873134Y-57412319D01*
X23906619Y-57473642D01*
X23901635Y-57543334D01*
X23873134Y-57587681D01*
X23808032Y-57652782D01*
X23808028Y-57652786D01*
X23687715Y-57818386D01*
X23594781Y-58000776D01*
X23531522Y-58195465D01*
X23499500Y-58397648D01*
X23499500Y-58602351D01*
X23531522Y-58804534D01*
X23594781Y-58999223D01*
X23637248Y-59082567D01*
X23687585Y-59181359D01*
X23687715Y-59181613D01*
X23808028Y-59347213D01*
X23952786Y-59491971D01*
X24073226Y-59579474D01*
X24118390Y-59612287D01*
X24234607Y-59671503D01*
X24300776Y-59705218D01*
X24300778Y-59705218D01*
X24300781Y-59705220D01*
X24405137Y-59739127D01*
X24495465Y-59768477D01*
X24596557Y-59784488D01*
X24697648Y-59800500D01*
X24697649Y-59800500D01*
X24902351Y-59800500D01*
X24902352Y-59800500D01*
X25104534Y-59768477D01*
X25299219Y-59705220D01*
X25481610Y-59612287D01*
X25574590Y-59544732D01*
X25647213Y-59491971D01*
X25647215Y-59491968D01*
X25647219Y-59491966D01*
X25791966Y-59347219D01*
X25791968Y-59347215D01*
X25791971Y-59347213D01*
X25912286Y-59181611D01*
X25912415Y-59181359D01*
X25939795Y-59127621D01*
X25987769Y-59076826D01*
X26055589Y-59060030D01*
X26121725Y-59082567D01*
X26160765Y-59127621D01*
X26188141Y-59181350D01*
X26188147Y-59181359D01*
X26220523Y-59225921D01*
X26220524Y-59225922D01*
X26837449Y-58608996D01*
X26857370Y-58683343D01*
X26919905Y-58791657D01*
X27008343Y-58880095D01*
X27116657Y-58942630D01*
X27191002Y-58962550D01*
X26574076Y-59579474D01*
X26618650Y-59611859D01*
X26800968Y-59704755D01*
X26995582Y-59767990D01*
X27197683Y-59800000D01*
X27402317Y-59800000D01*
X27604417Y-59767990D01*
X27799031Y-59704755D01*
X27981349Y-59611859D01*
X28025921Y-59579474D01*
X28025922Y-59579474D01*
X28006763Y-59560315D01*
X27408997Y-58962550D01*
X27483343Y-58942630D01*
X27591657Y-58880095D01*
X27680095Y-58791657D01*
X27742630Y-58683343D01*
X27762550Y-58608997D01*
X28379474Y-59225921D01*
X28411859Y-59181349D01*
X28504755Y-58999031D01*
X28567990Y-58804417D01*
X28600000Y-58602317D01*
X28600000Y-58397682D01*
X28567990Y-58195582D01*
X28504755Y-58000968D01*
X28412441Y-57819792D01*
X28399545Y-57751123D01*
X28425821Y-57686382D01*
X28448611Y-57664234D01*
X28457546Y-57657546D01*
X28543796Y-57542331D01*
X28594091Y-57407483D01*
X28600500Y-57347873D01*
X28600499Y-55652128D01*
X28594091Y-55592517D01*
X28591888Y-55586611D01*
X28543797Y-55457671D01*
X28543793Y-55457664D01*
X28510649Y-55413389D01*
X47899500Y-55413389D01*
X47899500Y-55586611D01*
X47926598Y-55757701D01*
X47980127Y-55922445D01*
X48058768Y-56076788D01*
X48160586Y-56216928D01*
X48283072Y-56339414D01*
X48423212Y-56441232D01*
X48577555Y-56519873D01*
X48742299Y-56573402D01*
X48913389Y-56600500D01*
X48913390Y-56600500D01*
X49086610Y-56600500D01*
X49086611Y-56600500D01*
X49257701Y-56573402D01*
X49422445Y-56519873D01*
X49576788Y-56441232D01*
X49716928Y-56339414D01*
X49839414Y-56216928D01*
X49941232Y-56076788D01*
X50019873Y-55922445D01*
X50073402Y-55757701D01*
X50100500Y-55586611D01*
X50100500Y-55413389D01*
X50073402Y-55242299D01*
X50019873Y-55077555D01*
X49941232Y-54923212D01*
X49839414Y-54783072D01*
X49716928Y-54660586D01*
X49576788Y-54558768D01*
X49422445Y-54480127D01*
X49257701Y-54426598D01*
X49257699Y-54426597D01*
X49257698Y-54426597D01*
X49126271Y-54405781D01*
X49086611Y-54399500D01*
X48913389Y-54399500D01*
X48873728Y-54405781D01*
X48742302Y-54426597D01*
X48577552Y-54480128D01*
X48423211Y-54558768D01*
X48343256Y-54616859D01*
X48283072Y-54660586D01*
X48283070Y-54660588D01*
X48283069Y-54660588D01*
X48160588Y-54783069D01*
X48160588Y-54783070D01*
X48160586Y-54783072D01*
X48116859Y-54843256D01*
X48058768Y-54923211D01*
X47980128Y-55077552D01*
X47926597Y-55242302D01*
X47910735Y-55342452D01*
X47899500Y-55413389D01*
X28510649Y-55413389D01*
X28457547Y-55342455D01*
X28457544Y-55342452D01*
X28342335Y-55256206D01*
X28342328Y-55256202D01*
X28207482Y-55205908D01*
X28207483Y-55205908D01*
X28147883Y-55199501D01*
X28147881Y-55199500D01*
X28147873Y-55199500D01*
X28147864Y-55199500D01*
X26452129Y-55199500D01*
X26452123Y-55199501D01*
X26392516Y-55205908D01*
X26257671Y-55256202D01*
X26257664Y-55256206D01*
X26142455Y-55342452D01*
X26142452Y-55342455D01*
X26056206Y-55457664D01*
X26056202Y-55457671D01*
X26005908Y-55592517D01*
X26004603Y-55598042D01*
X25970028Y-55658757D01*
X25908116Y-55691141D01*
X25838525Y-55684912D01*
X25796613Y-55655023D01*
X25795411Y-55656226D01*
X25647213Y-55508028D01*
X25481613Y-55387715D01*
X25481612Y-55387714D01*
X25481610Y-55387713D01*
X25424653Y-55358691D01*
X25299223Y-55294781D01*
X25104534Y-55231522D01*
X24929995Y-55203878D01*
X24902352Y-55199500D01*
X24697648Y-55199500D01*
X24673329Y-55203351D01*
X24495465Y-55231522D01*
X24300776Y-55294781D01*
X24118386Y-55387715D01*
X23952786Y-55508028D01*
X23808028Y-55652786D01*
X23687715Y-55818386D01*
X23594781Y-56000776D01*
X23531522Y-56195465D01*
X23499500Y-56397648D01*
X12500500Y-56397648D01*
X12500500Y-53321153D01*
X56099500Y-53321153D01*
X56099500Y-53478846D01*
X56130261Y-53633489D01*
X56130264Y-53633501D01*
X56190602Y-53779172D01*
X56190609Y-53779185D01*
X56278210Y-53910288D01*
X56278213Y-53910292D01*
X56389707Y-54021786D01*
X56389711Y-54021789D01*
X56520814Y-54109390D01*
X56520827Y-54109397D01*
X56666498Y-54169735D01*
X56666503Y-54169737D01*
X56821153Y-54200499D01*
X56821156Y-54200500D01*
X56821158Y-54200500D01*
X56978844Y-54200500D01*
X56978845Y-54200499D01*
X57133497Y-54169737D01*
X57279179Y-54109394D01*
X57410289Y-54021789D01*
X57521789Y-53910289D01*
X57609394Y-53779179D01*
X57669737Y-53633497D01*
X57700500Y-53478842D01*
X57700500Y-53321158D01*
X57700500Y-53321155D01*
X57700499Y-53321153D01*
X57669738Y-53166510D01*
X57669737Y-53166503D01*
X57669735Y-53166498D01*
X57609397Y-53020827D01*
X57609390Y-53020814D01*
X57521789Y-52889711D01*
X57521786Y-52889707D01*
X57410292Y-52778213D01*
X57410288Y-52778210D01*
X57279185Y-52690609D01*
X57279172Y-52690602D01*
X57133501Y-52630264D01*
X57133489Y-52630261D01*
X56978845Y-52599500D01*
X56978842Y-52599500D01*
X56821158Y-52599500D01*
X56821155Y-52599500D01*
X56666510Y-52630261D01*
X56666498Y-52630264D01*
X56520827Y-52690602D01*
X56520814Y-52690609D01*
X56389711Y-52778210D01*
X56389707Y-52778213D01*
X56278213Y-52889707D01*
X56278210Y-52889711D01*
X56190609Y-53020814D01*
X56190602Y-53020827D01*
X56130264Y-53166498D01*
X56130261Y-53166510D01*
X56099500Y-53321153D01*
X12500500Y-53321153D01*
X12500500Y-50821153D01*
X34949500Y-50821153D01*
X34949500Y-50978846D01*
X34980261Y-51133489D01*
X34980264Y-51133501D01*
X35040602Y-51279172D01*
X35040609Y-51279185D01*
X35128210Y-51410288D01*
X35128213Y-51410292D01*
X35239707Y-51521786D01*
X35239711Y-51521789D01*
X35370814Y-51609390D01*
X35370827Y-51609397D01*
X35516498Y-51669735D01*
X35516503Y-51669737D01*
X35671153Y-51700499D01*
X35671156Y-51700500D01*
X35671158Y-51700500D01*
X35828844Y-51700500D01*
X35828845Y-51700499D01*
X35983497Y-51669737D01*
X36129179Y-51609394D01*
X36260289Y-51521789D01*
X36371789Y-51410289D01*
X36459394Y-51279179D01*
X36519737Y-51133497D01*
X36550500Y-50978842D01*
X36550500Y-50821158D01*
X36550500Y-50821155D01*
X36550499Y-50821153D01*
X36519737Y-50666503D01*
X36500955Y-50621158D01*
X36500953Y-50621153D01*
X40299500Y-50621153D01*
X40299500Y-50778846D01*
X40330261Y-50933489D01*
X40330264Y-50933501D01*
X40390602Y-51079172D01*
X40390609Y-51079185D01*
X40478210Y-51210288D01*
X40478213Y-51210292D01*
X40589707Y-51321786D01*
X40589711Y-51321789D01*
X40720814Y-51409390D01*
X40720827Y-51409397D01*
X40866498Y-51469735D01*
X40866503Y-51469737D01*
X41021153Y-51500499D01*
X41021156Y-51500500D01*
X41021158Y-51500500D01*
X41178844Y-51500500D01*
X41178845Y-51500499D01*
X41333497Y-51469737D01*
X41479179Y-51409394D01*
X41610289Y-51321789D01*
X41721789Y-51210289D01*
X41809394Y-51079179D01*
X41869737Y-50933497D01*
X41900500Y-50778842D01*
X41900500Y-50621158D01*
X41900500Y-50621155D01*
X41900499Y-50621153D01*
X41880543Y-50520827D01*
X41869737Y-50466503D01*
X41837929Y-50389711D01*
X41809397Y-50320827D01*
X41809390Y-50320814D01*
X41721789Y-50189711D01*
X41721786Y-50189707D01*
X41644260Y-50112181D01*
X41610775Y-50050858D01*
X41615759Y-49981166D01*
X41657631Y-49925233D01*
X41723095Y-49900816D01*
X41731941Y-49900500D01*
X41778844Y-49900500D01*
X41778845Y-49900499D01*
X41933497Y-49869737D01*
X42079179Y-49809394D01*
X42210289Y-49721789D01*
X42321789Y-49610289D01*
X42409394Y-49479179D01*
X42469737Y-49333497D01*
X42500500Y-49178842D01*
X42500500Y-49021158D01*
X42500500Y-49021155D01*
X42500499Y-49021153D01*
X42483061Y-48933489D01*
X42469737Y-48866503D01*
X42442923Y-48801770D01*
X42435455Y-48732301D01*
X42466730Y-48669822D01*
X42526819Y-48634170D01*
X42581677Y-48632701D01*
X42671155Y-48650500D01*
X42671158Y-48650500D01*
X42828844Y-48650500D01*
X42828845Y-48650499D01*
X42983497Y-48619737D01*
X43129179Y-48559394D01*
X43260289Y-48471789D01*
X43371789Y-48360289D01*
X43431348Y-48271153D01*
X48499500Y-48271153D01*
X48499500Y-48428846D01*
X48530261Y-48583489D01*
X48530264Y-48583501D01*
X48590602Y-48729172D01*
X48590609Y-48729185D01*
X48678210Y-48860288D01*
X48678213Y-48860292D01*
X48789707Y-48971786D01*
X48789711Y-48971789D01*
X48920814Y-49059390D01*
X48920827Y-49059397D01*
X49066498Y-49119735D01*
X49066503Y-49119737D01*
X49221153Y-49150499D01*
X49221156Y-49150500D01*
X49221158Y-49150500D01*
X49378844Y-49150500D01*
X49378845Y-49150499D01*
X49533497Y-49119737D01*
X49679179Y-49059394D01*
X49810289Y-48971789D01*
X49921789Y-48860289D01*
X50009394Y-48729179D01*
X50012311Y-48722138D01*
X50054137Y-48621158D01*
X50069737Y-48583497D01*
X50100500Y-48428842D01*
X50100500Y-48271158D01*
X50100500Y-48271155D01*
X50100499Y-48271153D01*
X50069738Y-48116510D01*
X50069737Y-48116503D01*
X50069735Y-48116498D01*
X50009397Y-47970827D01*
X50009390Y-47970814D01*
X49921789Y-47839711D01*
X49921786Y-47839707D01*
X49810292Y-47728213D01*
X49810288Y-47728210D01*
X49679185Y-47640609D01*
X49679172Y-47640602D01*
X49533501Y-47580264D01*
X49533489Y-47580261D01*
X49378845Y-47549500D01*
X49378842Y-47549500D01*
X49221158Y-47549500D01*
X49221155Y-47549500D01*
X49066510Y-47580261D01*
X49066498Y-47580264D01*
X48920827Y-47640602D01*
X48920814Y-47640609D01*
X48789711Y-47728210D01*
X48789707Y-47728213D01*
X48678213Y-47839707D01*
X48678210Y-47839711D01*
X48590609Y-47970814D01*
X48590602Y-47970827D01*
X48530264Y-48116498D01*
X48530261Y-48116510D01*
X48499500Y-48271153D01*
X43431348Y-48271153D01*
X43459394Y-48229179D01*
X43519737Y-48083497D01*
X43550500Y-47928842D01*
X43550500Y-47771158D01*
X43550500Y-47771155D01*
X43550499Y-47771153D01*
X43524531Y-47640606D01*
X43519737Y-47616503D01*
X43517163Y-47610288D01*
X43459397Y-47470827D01*
X43459390Y-47470814D01*
X43371789Y-47339711D01*
X43371786Y-47339707D01*
X43260292Y-47228213D01*
X43260288Y-47228210D01*
X43129185Y-47140609D01*
X43129172Y-47140602D01*
X42983501Y-47080264D01*
X42983489Y-47080261D01*
X42828845Y-47049500D01*
X42828842Y-47049500D01*
X42671158Y-47049500D01*
X42671155Y-47049500D01*
X42516510Y-47080261D01*
X42516498Y-47080264D01*
X42370827Y-47140602D01*
X42370814Y-47140609D01*
X42239711Y-47228210D01*
X42239707Y-47228213D01*
X42128213Y-47339707D01*
X42128211Y-47339710D01*
X42109722Y-47367380D01*
X42056108Y-47412184D01*
X41986783Y-47420890D01*
X41982430Y-47420104D01*
X41878846Y-47399500D01*
X41878842Y-47399500D01*
X41721158Y-47399500D01*
X41721155Y-47399500D01*
X41566510Y-47430261D01*
X41566498Y-47430264D01*
X41420827Y-47490602D01*
X41420814Y-47490609D01*
X41289711Y-47578210D01*
X41289707Y-47578213D01*
X41178213Y-47689707D01*
X41178210Y-47689711D01*
X41090609Y-47820814D01*
X41090602Y-47820827D01*
X41030264Y-47966498D01*
X41030261Y-47966510D01*
X40999500Y-48121153D01*
X40999500Y-48278846D01*
X41030260Y-48433488D01*
X41030261Y-48433489D01*
X41030263Y-48433497D01*
X41063192Y-48512995D01*
X41070660Y-48582464D01*
X41051733Y-48629336D01*
X40990608Y-48720816D01*
X40990602Y-48720827D01*
X40930264Y-48866498D01*
X40930261Y-48866510D01*
X40899500Y-49021153D01*
X40899500Y-49178846D01*
X40930261Y-49333489D01*
X40930264Y-49333501D01*
X40990602Y-49479172D01*
X40990609Y-49479185D01*
X41078210Y-49610288D01*
X41078213Y-49610292D01*
X41155740Y-49687819D01*
X41189225Y-49749142D01*
X41184241Y-49818834D01*
X41142369Y-49874767D01*
X41076905Y-49899184D01*
X41068059Y-49899500D01*
X41021155Y-49899500D01*
X40866510Y-49930261D01*
X40866498Y-49930264D01*
X40720827Y-49990602D01*
X40720814Y-49990609D01*
X40589711Y-50078210D01*
X40589707Y-50078213D01*
X40478213Y-50189707D01*
X40478210Y-50189711D01*
X40390609Y-50320814D01*
X40390602Y-50320827D01*
X40330264Y-50466498D01*
X40330261Y-50466510D01*
X40299500Y-50621153D01*
X36500953Y-50621153D01*
X36459397Y-50520827D01*
X36459390Y-50520814D01*
X36371789Y-50389711D01*
X36371786Y-50389707D01*
X36260292Y-50278213D01*
X36260288Y-50278210D01*
X36129185Y-50190609D01*
X36129172Y-50190602D01*
X35983501Y-50130264D01*
X35983489Y-50130261D01*
X35828845Y-50099500D01*
X35828842Y-50099500D01*
X35671158Y-50099500D01*
X35671155Y-50099500D01*
X35516510Y-50130261D01*
X35516498Y-50130264D01*
X35370827Y-50190602D01*
X35370814Y-50190609D01*
X35239711Y-50278210D01*
X35239707Y-50278213D01*
X35128213Y-50389707D01*
X35128210Y-50389711D01*
X35040609Y-50520814D01*
X35040602Y-50520827D01*
X34980264Y-50666498D01*
X34980261Y-50666510D01*
X34949500Y-50821153D01*
X12500500Y-50821153D01*
X12500500Y-48921153D01*
X30999500Y-48921153D01*
X30999500Y-49078846D01*
X31030261Y-49233489D01*
X31030264Y-49233501D01*
X31090602Y-49379172D01*
X31090609Y-49379185D01*
X31178210Y-49510288D01*
X31178213Y-49510292D01*
X31289707Y-49621786D01*
X31289711Y-49621789D01*
X31420814Y-49709390D01*
X31420827Y-49709397D01*
X31566498Y-49769735D01*
X31566503Y-49769737D01*
X31721153Y-49800499D01*
X31721156Y-49800500D01*
X31721158Y-49800500D01*
X31878844Y-49800500D01*
X31878845Y-49800499D01*
X32033497Y-49769737D01*
X32179179Y-49709394D01*
X32310289Y-49621789D01*
X32421789Y-49510289D01*
X32509394Y-49379179D01*
X32569737Y-49233497D01*
X32600500Y-49078842D01*
X32600500Y-48921158D01*
X32600500Y-48921155D01*
X32600499Y-48921153D01*
X32572192Y-48778846D01*
X32569737Y-48766503D01*
X32555570Y-48732301D01*
X32509397Y-48620827D01*
X32509390Y-48620814D01*
X32484763Y-48583957D01*
X32442798Y-48521153D01*
X33799500Y-48521153D01*
X33799500Y-48678846D01*
X33830261Y-48833489D01*
X33830264Y-48833501D01*
X33890602Y-48979172D01*
X33890609Y-48979185D01*
X33978210Y-49110288D01*
X33978213Y-49110292D01*
X34089707Y-49221786D01*
X34089711Y-49221789D01*
X34220814Y-49309390D01*
X34220827Y-49309397D01*
X34366498Y-49369735D01*
X34366503Y-49369737D01*
X34521153Y-49400499D01*
X34521156Y-49400500D01*
X34521158Y-49400500D01*
X34678844Y-49400500D01*
X34678845Y-49400499D01*
X34833497Y-49369737D01*
X34979179Y-49309394D01*
X35110289Y-49221789D01*
X35221789Y-49110289D01*
X35309394Y-48979179D01*
X35369737Y-48833497D01*
X35400500Y-48678842D01*
X35400500Y-48621153D01*
X37299500Y-48621153D01*
X37299500Y-48778846D01*
X37330261Y-48933489D01*
X37330264Y-48933501D01*
X37390602Y-49079172D01*
X37390609Y-49079185D01*
X37478210Y-49210288D01*
X37478213Y-49210292D01*
X37589707Y-49321786D01*
X37589711Y-49321789D01*
X37720814Y-49409390D01*
X37720827Y-49409397D01*
X37866498Y-49469735D01*
X37866503Y-49469737D01*
X38021153Y-49500499D01*
X38021156Y-49500500D01*
X38021158Y-49500500D01*
X38178844Y-49500500D01*
X38178845Y-49500499D01*
X38333497Y-49469737D01*
X38479179Y-49409394D01*
X38610289Y-49321789D01*
X38721789Y-49210289D01*
X38809394Y-49079179D01*
X38869737Y-48933497D01*
X38900500Y-48778842D01*
X38900500Y-48621158D01*
X38900500Y-48621155D01*
X38900499Y-48621153D01*
X38893100Y-48583957D01*
X38869737Y-48466503D01*
X38854138Y-48428844D01*
X38809397Y-48320827D01*
X38809390Y-48320814D01*
X38721789Y-48189711D01*
X38721786Y-48189707D01*
X38610292Y-48078213D01*
X38610288Y-48078210D01*
X38479185Y-47990609D01*
X38479172Y-47990602D01*
X38333501Y-47930264D01*
X38333489Y-47930261D01*
X38178845Y-47899500D01*
X38178842Y-47899500D01*
X38021158Y-47899500D01*
X38021155Y-47899500D01*
X37866510Y-47930261D01*
X37866498Y-47930264D01*
X37720827Y-47990602D01*
X37720814Y-47990609D01*
X37589711Y-48078210D01*
X37589707Y-48078213D01*
X37478213Y-48189707D01*
X37478210Y-48189711D01*
X37390609Y-48320814D01*
X37390602Y-48320827D01*
X37330264Y-48466498D01*
X37330261Y-48466510D01*
X37299500Y-48621153D01*
X35400500Y-48621153D01*
X35400500Y-48521158D01*
X35400500Y-48521155D01*
X35400499Y-48521153D01*
X35372066Y-48378211D01*
X35369737Y-48366503D01*
X35330242Y-48271153D01*
X35309397Y-48220827D01*
X35309390Y-48220814D01*
X35221789Y-48089711D01*
X35221786Y-48089707D01*
X35110292Y-47978213D01*
X35110288Y-47978210D01*
X34979185Y-47890609D01*
X34979172Y-47890602D01*
X34833501Y-47830264D01*
X34833489Y-47830261D01*
X34678845Y-47799500D01*
X34678842Y-47799500D01*
X34521158Y-47799500D01*
X34521155Y-47799500D01*
X34366510Y-47830261D01*
X34366498Y-47830264D01*
X34220827Y-47890602D01*
X34220814Y-47890609D01*
X34089711Y-47978210D01*
X34089707Y-47978213D01*
X33978213Y-48089707D01*
X33978210Y-48089711D01*
X33890609Y-48220814D01*
X33890602Y-48220827D01*
X33830264Y-48366498D01*
X33830261Y-48366510D01*
X33799500Y-48521153D01*
X32442798Y-48521153D01*
X32421789Y-48489711D01*
X32421786Y-48489707D01*
X32310292Y-48378213D01*
X32310288Y-48378210D01*
X32179185Y-48290609D01*
X32179172Y-48290602D01*
X32033501Y-48230264D01*
X32033489Y-48230261D01*
X31878845Y-48199500D01*
X31878842Y-48199500D01*
X31721158Y-48199500D01*
X31721155Y-48199500D01*
X31566510Y-48230261D01*
X31566498Y-48230264D01*
X31420827Y-48290602D01*
X31420814Y-48290609D01*
X31289711Y-48378210D01*
X31289707Y-48378213D01*
X31178213Y-48489707D01*
X31178210Y-48489711D01*
X31090609Y-48620814D01*
X31090602Y-48620827D01*
X31030264Y-48766498D01*
X31030261Y-48766510D01*
X30999500Y-48921153D01*
X12500500Y-48921153D01*
X12500500Y-46121153D01*
X23599500Y-46121153D01*
X23599500Y-46278846D01*
X23630261Y-46433489D01*
X23630264Y-46433501D01*
X23690602Y-46579172D01*
X23690609Y-46579185D01*
X23778210Y-46710288D01*
X23778213Y-46710292D01*
X23889707Y-46821786D01*
X23889711Y-46821789D01*
X24020814Y-46909390D01*
X24020827Y-46909397D01*
X24064255Y-46927385D01*
X24166503Y-46969737D01*
X24321153Y-47000499D01*
X24321156Y-47000500D01*
X24321158Y-47000500D01*
X24478844Y-47000500D01*
X24478845Y-47000499D01*
X24633497Y-46969737D01*
X24779179Y-46909394D01*
X24910289Y-46821789D01*
X25021789Y-46710289D01*
X25109394Y-46579179D01*
X25169737Y-46433497D01*
X25200500Y-46278842D01*
X25200500Y-46121158D01*
X25200500Y-46121155D01*
X25200499Y-46121153D01*
X25180543Y-46020827D01*
X25169737Y-45966503D01*
X25137929Y-45889711D01*
X25109397Y-45820827D01*
X25109390Y-45820814D01*
X25021789Y-45689711D01*
X25021786Y-45689707D01*
X24910292Y-45578213D01*
X24910288Y-45578210D01*
X24779185Y-45490609D01*
X24779172Y-45490602D01*
X24633501Y-45430264D01*
X24633489Y-45430261D01*
X24478845Y-45399500D01*
X24478842Y-45399500D01*
X24321158Y-45399500D01*
X24321155Y-45399500D01*
X24166510Y-45430261D01*
X24166498Y-45430264D01*
X24020827Y-45490602D01*
X24020814Y-45490609D01*
X23889711Y-45578210D01*
X23889707Y-45578213D01*
X23778213Y-45689707D01*
X23778210Y-45689711D01*
X23690609Y-45820814D01*
X23690602Y-45820827D01*
X23630264Y-45966498D01*
X23630261Y-45966510D01*
X23599500Y-46121153D01*
X12500500Y-46121153D01*
X12500500Y-45221153D01*
X29999500Y-45221153D01*
X29999500Y-45378846D01*
X30030261Y-45533489D01*
X30030264Y-45533501D01*
X30090602Y-45679172D01*
X30090609Y-45679185D01*
X30178210Y-45810288D01*
X30178213Y-45810292D01*
X30289707Y-45921786D01*
X30289711Y-45921789D01*
X30420814Y-46009390D01*
X30420827Y-46009397D01*
X30566498Y-46069735D01*
X30566503Y-46069737D01*
X30659031Y-46088142D01*
X30721153Y-46100499D01*
X30721156Y-46100500D01*
X30721158Y-46100500D01*
X30878844Y-46100500D01*
X30972275Y-46081915D01*
X31041867Y-46088142D01*
X31097044Y-46131005D01*
X31120289Y-46196894D01*
X31118085Y-46227722D01*
X31099500Y-46321158D01*
X31099500Y-46478846D01*
X31130261Y-46633489D01*
X31130264Y-46633501D01*
X31190602Y-46779172D01*
X31190609Y-46779185D01*
X31278210Y-46910288D01*
X31278213Y-46910292D01*
X31389707Y-47021786D01*
X31389711Y-47021789D01*
X31520814Y-47109390D01*
X31520827Y-47109397D01*
X31596181Y-47140609D01*
X31666503Y-47169737D01*
X31821153Y-47200499D01*
X31821156Y-47200500D01*
X31821158Y-47200500D01*
X31978844Y-47200500D01*
X31978845Y-47200499D01*
X32133497Y-47169737D01*
X32279179Y-47109394D01*
X32410289Y-47021789D01*
X32410925Y-47021153D01*
X38499500Y-47021153D01*
X38499500Y-47178846D01*
X38530261Y-47333489D01*
X38530264Y-47333501D01*
X38590602Y-47479172D01*
X38590609Y-47479185D01*
X38678210Y-47610288D01*
X38678213Y-47610292D01*
X38789707Y-47721786D01*
X38789711Y-47721789D01*
X38920814Y-47809390D01*
X38920827Y-47809397D01*
X38994013Y-47839711D01*
X39066503Y-47869737D01*
X39216131Y-47899500D01*
X39221153Y-47900499D01*
X39221156Y-47900500D01*
X39221158Y-47900500D01*
X39378844Y-47900500D01*
X39378845Y-47900499D01*
X39533497Y-47869737D01*
X39651592Y-47820821D01*
X39679172Y-47809397D01*
X39679172Y-47809396D01*
X39679179Y-47809394D01*
X39810289Y-47721789D01*
X39921789Y-47610289D01*
X40009394Y-47479179D01*
X40012854Y-47470827D01*
X40029655Y-47430264D01*
X40069737Y-47333497D01*
X40100500Y-47178842D01*
X40100500Y-47021158D01*
X40100500Y-47021155D01*
X40100499Y-47021153D01*
X40078447Y-46910292D01*
X40069737Y-46866503D01*
X40033569Y-46779185D01*
X40009397Y-46720827D01*
X40009390Y-46720814D01*
X39921789Y-46589711D01*
X39921786Y-46589707D01*
X39810292Y-46478213D01*
X39810288Y-46478210D01*
X39679185Y-46390609D01*
X39679172Y-46390602D01*
X39533501Y-46330264D01*
X39533489Y-46330261D01*
X39378845Y-46299500D01*
X39378842Y-46299500D01*
X39221158Y-46299500D01*
X39221155Y-46299500D01*
X39066510Y-46330261D01*
X39066498Y-46330264D01*
X38920827Y-46390602D01*
X38920814Y-46390609D01*
X38789711Y-46478210D01*
X38789707Y-46478213D01*
X38678213Y-46589707D01*
X38678210Y-46589711D01*
X38590609Y-46720814D01*
X38590602Y-46720827D01*
X38530264Y-46866498D01*
X38530261Y-46866510D01*
X38499500Y-47021153D01*
X32410925Y-47021153D01*
X32431579Y-47000499D01*
X32504694Y-46927385D01*
X32521786Y-46910292D01*
X32521789Y-46910289D01*
X32609394Y-46779179D01*
X32669737Y-46633497D01*
X32700500Y-46478842D01*
X32700500Y-46321158D01*
X32700500Y-46321155D01*
X32700499Y-46321153D01*
X32696192Y-46299500D01*
X32669737Y-46166503D01*
X32669735Y-46166498D01*
X32609397Y-46020827D01*
X32609390Y-46020814D01*
X32521789Y-45889711D01*
X32521786Y-45889707D01*
X32410292Y-45778213D01*
X32410288Y-45778210D01*
X32279185Y-45690609D01*
X32279172Y-45690602D01*
X32133501Y-45630264D01*
X32133489Y-45630261D01*
X31978845Y-45599500D01*
X31978842Y-45599500D01*
X31821158Y-45599500D01*
X31727722Y-45618085D01*
X31658131Y-45611856D01*
X31602954Y-45568993D01*
X31579710Y-45503103D01*
X31581915Y-45472275D01*
X31600500Y-45378844D01*
X31600500Y-45221155D01*
X31600499Y-45221153D01*
X31569738Y-45066510D01*
X31569737Y-45066503D01*
X31533427Y-44978842D01*
X31509397Y-44920827D01*
X31509390Y-44920814D01*
X31442798Y-44821153D01*
X55199500Y-44821153D01*
X55199500Y-44978846D01*
X55230261Y-45133489D01*
X55230264Y-45133501D01*
X55290602Y-45279172D01*
X55290609Y-45279185D01*
X55378210Y-45410288D01*
X55378213Y-45410292D01*
X55489707Y-45521786D01*
X55489711Y-45521789D01*
X55620814Y-45609390D01*
X55620827Y-45609397D01*
X55766498Y-45669735D01*
X55766503Y-45669737D01*
X55921153Y-45700499D01*
X55921156Y-45700500D01*
X55921158Y-45700500D01*
X56078844Y-45700500D01*
X56078845Y-45700499D01*
X56233497Y-45669737D01*
X56379179Y-45609394D01*
X56510289Y-45521789D01*
X56621789Y-45410289D01*
X56709394Y-45279179D01*
X56769737Y-45133497D01*
X56800500Y-44978842D01*
X56800500Y-44821158D01*
X56800500Y-44821155D01*
X56800499Y-44821153D01*
X56794244Y-44789707D01*
X56769737Y-44666503D01*
X56734833Y-44582237D01*
X56709397Y-44520827D01*
X56709390Y-44520814D01*
X56621789Y-44389711D01*
X56621786Y-44389707D01*
X56510292Y-44278213D01*
X56510288Y-44278210D01*
X56379185Y-44190609D01*
X56379172Y-44190602D01*
X56233501Y-44130264D01*
X56233489Y-44130261D01*
X56078845Y-44099500D01*
X56078842Y-44099500D01*
X55921158Y-44099500D01*
X55921155Y-44099500D01*
X55766510Y-44130261D01*
X55766498Y-44130264D01*
X55620827Y-44190602D01*
X55620814Y-44190609D01*
X55489711Y-44278210D01*
X55489707Y-44278213D01*
X55378213Y-44389707D01*
X55378210Y-44389711D01*
X55290609Y-44520814D01*
X55290602Y-44520827D01*
X55230264Y-44666498D01*
X55230261Y-44666510D01*
X55199500Y-44821153D01*
X31442798Y-44821153D01*
X31421789Y-44789711D01*
X31421786Y-44789707D01*
X31310292Y-44678213D01*
X31310288Y-44678210D01*
X31179185Y-44590609D01*
X31179172Y-44590602D01*
X31033501Y-44530264D01*
X31033489Y-44530261D01*
X30878845Y-44499500D01*
X30878842Y-44499500D01*
X30721158Y-44499500D01*
X30721155Y-44499500D01*
X30566510Y-44530261D01*
X30566498Y-44530264D01*
X30420827Y-44590602D01*
X30420814Y-44590609D01*
X30289711Y-44678210D01*
X30289707Y-44678213D01*
X30178213Y-44789707D01*
X30178210Y-44789711D01*
X30090609Y-44920814D01*
X30090602Y-44920827D01*
X30030264Y-45066498D01*
X30030261Y-45066510D01*
X29999500Y-45221153D01*
X12500500Y-45221153D01*
X12500500Y-43733653D01*
X37787000Y-43733653D01*
X37787000Y-43891346D01*
X37817761Y-44045989D01*
X37817764Y-44046001D01*
X37878102Y-44191672D01*
X37878109Y-44191685D01*
X37965710Y-44322788D01*
X37965713Y-44322792D01*
X38077207Y-44434286D01*
X38077211Y-44434289D01*
X38208314Y-44521890D01*
X38208327Y-44521897D01*
X38313318Y-44565385D01*
X38354003Y-44582237D01*
X38508653Y-44612999D01*
X38508656Y-44613000D01*
X38508658Y-44613000D01*
X38666344Y-44613000D01*
X38666345Y-44612999D01*
X38820997Y-44582237D01*
X38966679Y-44521894D01*
X39036224Y-44475424D01*
X39102900Y-44454546D01*
X39132578Y-44457605D01*
X39142840Y-44459935D01*
X39166503Y-44469737D01*
X39321158Y-44500500D01*
X39321449Y-44500500D01*
X39325121Y-44501334D01*
X39354243Y-44517583D01*
X39383760Y-44533023D01*
X39385339Y-44534574D01*
X39416139Y-44565374D01*
X39416149Y-44565385D01*
X39420479Y-44569715D01*
X39420480Y-44569716D01*
X39532284Y-44681520D01*
X39532286Y-44681521D01*
X39532290Y-44681524D01*
X39582054Y-44710255D01*
X39582059Y-44710257D01*
X39669209Y-44760574D01*
X39669210Y-44760575D01*
X39669212Y-44760575D01*
X39669215Y-44760577D01*
X39821943Y-44801501D01*
X39821946Y-44801501D01*
X39987653Y-44801501D01*
X39987669Y-44801500D01*
X53712331Y-44801500D01*
X53712347Y-44801501D01*
X53719943Y-44801501D01*
X53878054Y-44801501D01*
X53878057Y-44801501D01*
X54030785Y-44760577D01*
X54117943Y-44710256D01*
X54167716Y-44681520D01*
X54279520Y-44569716D01*
X54279520Y-44569714D01*
X54289724Y-44559511D01*
X54289727Y-44559506D01*
X54714662Y-44134572D01*
X54775983Y-44101089D01*
X54778150Y-44100638D01*
X54836085Y-44089113D01*
X54933497Y-44069737D01*
X55079179Y-44009394D01*
X55210289Y-43921789D01*
X55321789Y-43810289D01*
X55409394Y-43679179D01*
X55469737Y-43533497D01*
X55500500Y-43378842D01*
X55500500Y-43266259D01*
X55520185Y-43199220D01*
X55572989Y-43153465D01*
X55577048Y-43151698D01*
X55679172Y-43109397D01*
X55679172Y-43109396D01*
X55679179Y-43109394D01*
X55810289Y-43021789D01*
X55921789Y-42910289D01*
X56009394Y-42779179D01*
X56069737Y-42633497D01*
X56100500Y-42478842D01*
X56100500Y-42321158D01*
X56100500Y-42321155D01*
X56100499Y-42321153D01*
X56094244Y-42289707D01*
X56069737Y-42166503D01*
X56050955Y-42121158D01*
X56009397Y-42020827D01*
X56009390Y-42020814D01*
X55921789Y-41889711D01*
X55921786Y-41889707D01*
X55810292Y-41778213D01*
X55810288Y-41778210D01*
X55679185Y-41690609D01*
X55679172Y-41690602D01*
X55533501Y-41630264D01*
X55533489Y-41630261D01*
X55378845Y-41599500D01*
X55378842Y-41599500D01*
X55231941Y-41599500D01*
X55164902Y-41579815D01*
X55119147Y-41527011D01*
X55109203Y-41457853D01*
X55138228Y-41394297D01*
X55144260Y-41387819D01*
X55221786Y-41310292D01*
X55221789Y-41310289D01*
X55309394Y-41179179D01*
X55369737Y-41033497D01*
X55400500Y-40878842D01*
X55400500Y-40721158D01*
X55400500Y-40721155D01*
X55400499Y-40721153D01*
X55378269Y-40609397D01*
X55369737Y-40566503D01*
X55369735Y-40566498D01*
X55309397Y-40420827D01*
X55309390Y-40420814D01*
X55221789Y-40289711D01*
X55221786Y-40289707D01*
X55110292Y-40178213D01*
X55110288Y-40178210D01*
X54979185Y-40090609D01*
X54979172Y-40090602D01*
X54833501Y-40030264D01*
X54833489Y-40030261D01*
X54678845Y-39999500D01*
X54678842Y-39999500D01*
X54521158Y-39999500D01*
X54521155Y-39999500D01*
X54366510Y-40030261D01*
X54366498Y-40030264D01*
X54220827Y-40090602D01*
X54220814Y-40090609D01*
X54089711Y-40178210D01*
X54089707Y-40178213D01*
X53978213Y-40289707D01*
X53978210Y-40289711D01*
X53890609Y-40420814D01*
X53890602Y-40420827D01*
X53830264Y-40566498D01*
X53830261Y-40566508D01*
X53799362Y-40721848D01*
X53766977Y-40783759D01*
X53765426Y-40785337D01*
X52188584Y-42362181D01*
X52127261Y-42395666D01*
X52100903Y-42398500D01*
X48328018Y-42398500D01*
X48260979Y-42378815D01*
X48215224Y-42326011D01*
X48205280Y-42256853D01*
X48224916Y-42205609D01*
X48243222Y-42178213D01*
X48309394Y-42079179D01*
X48369737Y-41933497D01*
X48400500Y-41778842D01*
X48400500Y-41621158D01*
X48400500Y-41621155D01*
X48400499Y-41621153D01*
X48381773Y-41527011D01*
X48369737Y-41466503D01*
X48366154Y-41457853D01*
X48309397Y-41320827D01*
X48309390Y-41320814D01*
X48221789Y-41189711D01*
X48221786Y-41189707D01*
X48110292Y-41078213D01*
X48110288Y-41078210D01*
X47979185Y-40990609D01*
X47979172Y-40990602D01*
X47833501Y-40930264D01*
X47833489Y-40930261D01*
X47678845Y-40899500D01*
X47678842Y-40899500D01*
X47521158Y-40899500D01*
X47521155Y-40899500D01*
X47366510Y-40930261D01*
X47366498Y-40930264D01*
X47220827Y-40990602D01*
X47220814Y-40990609D01*
X47089711Y-41078210D01*
X47089707Y-41078213D01*
X46978213Y-41189707D01*
X46978210Y-41189711D01*
X46890609Y-41320814D01*
X46890602Y-41320827D01*
X46830264Y-41466498D01*
X46830261Y-41466510D01*
X46799500Y-41621153D01*
X46799500Y-41778846D01*
X46830261Y-41933489D01*
X46830264Y-41933501D01*
X46890602Y-42079172D01*
X46890609Y-42079185D01*
X46975084Y-42205609D01*
X46995962Y-42272286D01*
X46977478Y-42339666D01*
X46925499Y-42386357D01*
X46871982Y-42398500D01*
X43565845Y-42398500D01*
X43498806Y-42378815D01*
X43453051Y-42326011D01*
X43451284Y-42321952D01*
X43409397Y-42220827D01*
X43409390Y-42220814D01*
X43321789Y-42089711D01*
X43321786Y-42089707D01*
X43315913Y-42083834D01*
X43282428Y-42022511D01*
X43281977Y-41971961D01*
X43283062Y-41966510D01*
X43300500Y-41878842D01*
X43300500Y-41721158D01*
X43300500Y-41721155D01*
X43300499Y-41721153D01*
X43282419Y-41630261D01*
X43269737Y-41566503D01*
X43233569Y-41479185D01*
X43209397Y-41420827D01*
X43209390Y-41420814D01*
X43121789Y-41289711D01*
X43121786Y-41289707D01*
X43010292Y-41178213D01*
X43010288Y-41178210D01*
X42879185Y-41090609D01*
X42879172Y-41090602D01*
X42733501Y-41030264D01*
X42733489Y-41030261D01*
X42578845Y-40999500D01*
X42578842Y-40999500D01*
X42421158Y-40999500D01*
X42421155Y-40999500D01*
X42266510Y-41030261D01*
X42266498Y-41030264D01*
X42120827Y-41090602D01*
X42120814Y-41090609D01*
X41989711Y-41178210D01*
X41989707Y-41178213D01*
X41878213Y-41289707D01*
X41878210Y-41289711D01*
X41790609Y-41420814D01*
X41790602Y-41420827D01*
X41730264Y-41566498D01*
X41730261Y-41566510D01*
X41699500Y-41721153D01*
X41699500Y-41882152D01*
X41679815Y-41949191D01*
X41627011Y-41994946D01*
X41599692Y-42003769D01*
X41466508Y-42030261D01*
X41466498Y-42030264D01*
X41320827Y-42090602D01*
X41320814Y-42090609D01*
X41189711Y-42178210D01*
X41189707Y-42178213D01*
X41078213Y-42289707D01*
X41078210Y-42289711D01*
X40990609Y-42420814D01*
X40990602Y-42420827D01*
X40930264Y-42566498D01*
X40930261Y-42566510D01*
X40899500Y-42721153D01*
X40899500Y-42878846D01*
X40930261Y-43033489D01*
X40930264Y-43033501D01*
X40990602Y-43179172D01*
X40990609Y-43179185D01*
X41078210Y-43310288D01*
X41078213Y-43310292D01*
X41156740Y-43388819D01*
X41190225Y-43450142D01*
X41185241Y-43519834D01*
X41143369Y-43575767D01*
X41077905Y-43600184D01*
X41069059Y-43600500D01*
X40298155Y-43600500D01*
X40231116Y-43580815D01*
X40185361Y-43528011D01*
X40176538Y-43500691D01*
X40172326Y-43479520D01*
X40169737Y-43466503D01*
X40137561Y-43388823D01*
X40109397Y-43320827D01*
X40109390Y-43320814D01*
X40021789Y-43189711D01*
X40021786Y-43189707D01*
X39910292Y-43078213D01*
X39910288Y-43078210D01*
X39779185Y-42990609D01*
X39779172Y-42990602D01*
X39633501Y-42930264D01*
X39633489Y-42930261D01*
X39478845Y-42899500D01*
X39478842Y-42899500D01*
X39321158Y-42899500D01*
X39321155Y-42899500D01*
X39166510Y-42930261D01*
X39166498Y-42930264D01*
X39020828Y-42990602D01*
X39020817Y-42990608D01*
X38951273Y-43037076D01*
X38884595Y-43057953D01*
X38834934Y-43048536D01*
X38820997Y-43042763D01*
X38820993Y-43042762D01*
X38820988Y-43042760D01*
X38666345Y-43012000D01*
X38666342Y-43012000D01*
X38508658Y-43012000D01*
X38508655Y-43012000D01*
X38354010Y-43042761D01*
X38353998Y-43042764D01*
X38208327Y-43103102D01*
X38208314Y-43103109D01*
X38077211Y-43190710D01*
X38077207Y-43190713D01*
X37965713Y-43302207D01*
X37965710Y-43302211D01*
X37878109Y-43433314D01*
X37878102Y-43433327D01*
X37817764Y-43578998D01*
X37817761Y-43579010D01*
X37787000Y-43733653D01*
X12500500Y-43733653D01*
X12500500Y-42121153D01*
X25149500Y-42121153D01*
X25149500Y-42278846D01*
X25180261Y-42433489D01*
X25180264Y-42433501D01*
X25240602Y-42579172D01*
X25240609Y-42579185D01*
X25328210Y-42710288D01*
X25328213Y-42710292D01*
X25439707Y-42821786D01*
X25439711Y-42821789D01*
X25570814Y-42909390D01*
X25570827Y-42909397D01*
X25716498Y-42969735D01*
X25716503Y-42969737D01*
X25871153Y-43000499D01*
X25871156Y-43000500D01*
X25871158Y-43000500D01*
X26028844Y-43000500D01*
X26028845Y-43000499D01*
X26183497Y-42969737D01*
X26301592Y-42920821D01*
X26329172Y-42909397D01*
X26329172Y-42909396D01*
X26329179Y-42909394D01*
X26460289Y-42821789D01*
X26571789Y-42710289D01*
X26659394Y-42579179D01*
X26719737Y-42433497D01*
X26750500Y-42278842D01*
X26750500Y-42121158D01*
X26750500Y-42121155D01*
X26750499Y-42121153D01*
X26730543Y-42020827D01*
X26719737Y-41966503D01*
X26692398Y-41900500D01*
X26659397Y-41820827D01*
X26659390Y-41820814D01*
X26571789Y-41689711D01*
X26571786Y-41689707D01*
X26460292Y-41578213D01*
X26460288Y-41578210D01*
X26329185Y-41490609D01*
X26329172Y-41490602D01*
X26183501Y-41430264D01*
X26183489Y-41430261D01*
X26028845Y-41399500D01*
X26028842Y-41399500D01*
X25871158Y-41399500D01*
X25871155Y-41399500D01*
X25716510Y-41430261D01*
X25716498Y-41430264D01*
X25570827Y-41490602D01*
X25570814Y-41490609D01*
X25439711Y-41578210D01*
X25439707Y-41578213D01*
X25328213Y-41689707D01*
X25328210Y-41689711D01*
X25240609Y-41820814D01*
X25240602Y-41820827D01*
X25180264Y-41966498D01*
X25180261Y-41966510D01*
X25149500Y-42121153D01*
X12500500Y-42121153D01*
X12500500Y-41021153D01*
X22499500Y-41021153D01*
X22499500Y-41178846D01*
X22530261Y-41333489D01*
X22530264Y-41333501D01*
X22590602Y-41479172D01*
X22590609Y-41479185D01*
X22678210Y-41610288D01*
X22678213Y-41610292D01*
X22789707Y-41721786D01*
X22789711Y-41721789D01*
X22920814Y-41809390D01*
X22920827Y-41809397D01*
X23066498Y-41869735D01*
X23066503Y-41869737D01*
X23210470Y-41898374D01*
X23221153Y-41900499D01*
X23221156Y-41900500D01*
X23221158Y-41900500D01*
X23378844Y-41900500D01*
X23378845Y-41900499D01*
X23533497Y-41869737D01*
X23651592Y-41820821D01*
X23679172Y-41809397D01*
X23679172Y-41809396D01*
X23679179Y-41809394D01*
X23810289Y-41721789D01*
X23921789Y-41610289D01*
X24009394Y-41479179D01*
X24069737Y-41333497D01*
X24092083Y-41221158D01*
X24092084Y-41221153D01*
X34199500Y-41221153D01*
X34199500Y-41378846D01*
X34230261Y-41533489D01*
X34230264Y-41533501D01*
X34290602Y-41679172D01*
X34290609Y-41679185D01*
X34378210Y-41810288D01*
X34378213Y-41810292D01*
X34489707Y-41921786D01*
X34489711Y-41921789D01*
X34620814Y-42009390D01*
X34620827Y-42009397D01*
X34766498Y-42069735D01*
X34766503Y-42069737D01*
X34921153Y-42100499D01*
X34921156Y-42100500D01*
X34921158Y-42100500D01*
X35078844Y-42100500D01*
X35078845Y-42100499D01*
X35233497Y-42069737D01*
X35351604Y-42020816D01*
X35379172Y-42009397D01*
X35379172Y-42009396D01*
X35379179Y-42009394D01*
X35510289Y-41921789D01*
X35621789Y-41810289D01*
X35709394Y-41679179D01*
X35769737Y-41533497D01*
X35800500Y-41378842D01*
X35800500Y-41221158D01*
X35800500Y-41221155D01*
X35800499Y-41221153D01*
X35792148Y-41179172D01*
X35769737Y-41066503D01*
X35756062Y-41033489D01*
X35709397Y-40920827D01*
X35709390Y-40920814D01*
X35621789Y-40789711D01*
X35621786Y-40789707D01*
X35510292Y-40678213D01*
X35510288Y-40678210D01*
X35379185Y-40590609D01*
X35379172Y-40590602D01*
X35233501Y-40530264D01*
X35233489Y-40530261D01*
X35078845Y-40499500D01*
X35078842Y-40499500D01*
X34921158Y-40499500D01*
X34921155Y-40499500D01*
X34766510Y-40530261D01*
X34766498Y-40530264D01*
X34620827Y-40590602D01*
X34620814Y-40590609D01*
X34489711Y-40678210D01*
X34489707Y-40678213D01*
X34378213Y-40789707D01*
X34378210Y-40789711D01*
X34290609Y-40920814D01*
X34290602Y-40920827D01*
X34230264Y-41066498D01*
X34230261Y-41066510D01*
X34199500Y-41221153D01*
X24092084Y-41221153D01*
X24098107Y-41190875D01*
X24098107Y-41190874D01*
X24100500Y-41178844D01*
X24100500Y-41021155D01*
X24100499Y-41021153D01*
X24080543Y-40920827D01*
X24069737Y-40866503D01*
X24037929Y-40789711D01*
X24009397Y-40720827D01*
X24009390Y-40720814D01*
X23921789Y-40589711D01*
X23921786Y-40589707D01*
X23810292Y-40478213D01*
X23810288Y-40478210D01*
X23679185Y-40390609D01*
X23679172Y-40390602D01*
X23533501Y-40330264D01*
X23533489Y-40330261D01*
X23378845Y-40299500D01*
X23378842Y-40299500D01*
X23221158Y-40299500D01*
X23221155Y-40299500D01*
X23066510Y-40330261D01*
X23066498Y-40330264D01*
X22920827Y-40390602D01*
X22920814Y-40390609D01*
X22789711Y-40478210D01*
X22789707Y-40478213D01*
X22678213Y-40589707D01*
X22678210Y-40589711D01*
X22590609Y-40720814D01*
X22590602Y-40720827D01*
X22530264Y-40866498D01*
X22530261Y-40866510D01*
X22499500Y-41021153D01*
X12500500Y-41021153D01*
X12500500Y-39821153D01*
X17799500Y-39821153D01*
X17799500Y-39978846D01*
X17830261Y-40133489D01*
X17830264Y-40133501D01*
X17890602Y-40279172D01*
X17890609Y-40279185D01*
X17978210Y-40410288D01*
X17978213Y-40410292D01*
X18089707Y-40521786D01*
X18089711Y-40521789D01*
X18220814Y-40609390D01*
X18220827Y-40609397D01*
X18366498Y-40669735D01*
X18366503Y-40669737D01*
X18521153Y-40700499D01*
X18521156Y-40700500D01*
X18521158Y-40700500D01*
X18678844Y-40700500D01*
X18678845Y-40700499D01*
X18833497Y-40669737D01*
X18979179Y-40609394D01*
X19110289Y-40521789D01*
X19221789Y-40410289D01*
X19309394Y-40279179D01*
X19369737Y-40133497D01*
X19400500Y-39978842D01*
X19400500Y-39821158D01*
X19400500Y-39821155D01*
X19400499Y-39821153D01*
X19369738Y-39666510D01*
X19369737Y-39666503D01*
X19367043Y-39660000D01*
X19309397Y-39520827D01*
X19309390Y-39520814D01*
X19242798Y-39421153D01*
X40099500Y-39421153D01*
X40099500Y-39578846D01*
X40130261Y-39733489D01*
X40130264Y-39733501D01*
X40190602Y-39879172D01*
X40190609Y-39879185D01*
X40278210Y-40010288D01*
X40278213Y-40010292D01*
X40389707Y-40121786D01*
X40389711Y-40121789D01*
X40520814Y-40209390D01*
X40520827Y-40209397D01*
X40666498Y-40269735D01*
X40666503Y-40269737D01*
X40816131Y-40299500D01*
X40821153Y-40300499D01*
X40821156Y-40300500D01*
X40821158Y-40300500D01*
X40978844Y-40300500D01*
X40978845Y-40300499D01*
X41133497Y-40269737D01*
X41279179Y-40209394D01*
X41410289Y-40121789D01*
X41521789Y-40010289D01*
X41609394Y-39879179D01*
X41669737Y-39733497D01*
X41700500Y-39578842D01*
X41700500Y-39421158D01*
X41700500Y-39421155D01*
X41700499Y-39421153D01*
X41683500Y-39335696D01*
X41669737Y-39266503D01*
X41643013Y-39201985D01*
X41609397Y-39120827D01*
X41609390Y-39120814D01*
X41521789Y-38989711D01*
X41521786Y-38989707D01*
X41410292Y-38878213D01*
X41410288Y-38878210D01*
X41279185Y-38790609D01*
X41279172Y-38790602D01*
X41133501Y-38730264D01*
X41133489Y-38730261D01*
X40978845Y-38699500D01*
X40978842Y-38699500D01*
X40821158Y-38699500D01*
X40821155Y-38699500D01*
X40666510Y-38730261D01*
X40666498Y-38730264D01*
X40520827Y-38790602D01*
X40520814Y-38790609D01*
X40389711Y-38878210D01*
X40389707Y-38878213D01*
X40278213Y-38989707D01*
X40278210Y-38989711D01*
X40190609Y-39120814D01*
X40190602Y-39120827D01*
X40130264Y-39266498D01*
X40130261Y-39266510D01*
X40099500Y-39421153D01*
X19242798Y-39421153D01*
X19221789Y-39389711D01*
X19221786Y-39389707D01*
X19110292Y-39278213D01*
X19110288Y-39278210D01*
X18979185Y-39190609D01*
X18979172Y-39190602D01*
X18833501Y-39130264D01*
X18833489Y-39130261D01*
X18678845Y-39099500D01*
X18678842Y-39099500D01*
X18521158Y-39099500D01*
X18521155Y-39099500D01*
X18366510Y-39130261D01*
X18366498Y-39130264D01*
X18220827Y-39190602D01*
X18220814Y-39190609D01*
X18089711Y-39278210D01*
X18089707Y-39278213D01*
X17978213Y-39389707D01*
X17978210Y-39389711D01*
X17890609Y-39520814D01*
X17890602Y-39520827D01*
X17830264Y-39666498D01*
X17830261Y-39666510D01*
X17799500Y-39821153D01*
X12500500Y-39821153D01*
X12500500Y-38221153D01*
X20399500Y-38221153D01*
X20399500Y-38378846D01*
X20430261Y-38533489D01*
X20430264Y-38533501D01*
X20490602Y-38679172D01*
X20490609Y-38679185D01*
X20578210Y-38810288D01*
X20578213Y-38810292D01*
X20689707Y-38921786D01*
X20689711Y-38921789D01*
X20820814Y-39009390D01*
X20820827Y-39009397D01*
X20966498Y-39069735D01*
X20966503Y-39069737D01*
X21101255Y-39096541D01*
X21121153Y-39100499D01*
X21121156Y-39100500D01*
X21121158Y-39100500D01*
X21278844Y-39100500D01*
X21278845Y-39100499D01*
X21433497Y-39069737D01*
X21579179Y-39009394D01*
X21710289Y-38921789D01*
X21821789Y-38810289D01*
X21909394Y-38679179D01*
X21969737Y-38533497D01*
X22000500Y-38378842D01*
X22000500Y-38221158D01*
X22000500Y-38221155D01*
X22000499Y-38221153D01*
X21978269Y-38109397D01*
X21969737Y-38066503D01*
X21954295Y-38029223D01*
X21909397Y-37920827D01*
X21909390Y-37920814D01*
X21821789Y-37789711D01*
X21821786Y-37789707D01*
X21710292Y-37678213D01*
X21710288Y-37678210D01*
X21579185Y-37590609D01*
X21579172Y-37590602D01*
X21433501Y-37530264D01*
X21433489Y-37530261D01*
X21278845Y-37499500D01*
X21278842Y-37499500D01*
X21121158Y-37499500D01*
X21121155Y-37499500D01*
X20966510Y-37530261D01*
X20966498Y-37530264D01*
X20820827Y-37590602D01*
X20820814Y-37590609D01*
X20689711Y-37678210D01*
X20689707Y-37678213D01*
X20578213Y-37789707D01*
X20578210Y-37789711D01*
X20490609Y-37920814D01*
X20490602Y-37920827D01*
X20430264Y-38066498D01*
X20430261Y-38066510D01*
X20399500Y-38221153D01*
X12500500Y-38221153D01*
X12500500Y-37243995D01*
X23024499Y-37243995D01*
X23051418Y-37379322D01*
X23051421Y-37379332D01*
X23104221Y-37506804D01*
X23104228Y-37506817D01*
X23180885Y-37621541D01*
X23180888Y-37621545D01*
X23278454Y-37719111D01*
X23278458Y-37719114D01*
X23393182Y-37795771D01*
X23393195Y-37795778D01*
X23520667Y-37848578D01*
X23520672Y-37848580D01*
X23520676Y-37848580D01*
X23520677Y-37848581D01*
X23656004Y-37875500D01*
X23656007Y-37875500D01*
X23793995Y-37875500D01*
X23885041Y-37857389D01*
X23929328Y-37848580D01*
X24056811Y-37795775D01*
X24171542Y-37719114D01*
X24269114Y-37621542D01*
X24345775Y-37506811D01*
X24345778Y-37506804D01*
X24347939Y-37501588D01*
X24391780Y-37447184D01*
X24458074Y-37425119D01*
X24525773Y-37442398D01*
X24573384Y-37493535D01*
X24577061Y-37501588D01*
X24579221Y-37506804D01*
X24579228Y-37506817D01*
X24655885Y-37621541D01*
X24655888Y-37621545D01*
X24753454Y-37719111D01*
X24753458Y-37719114D01*
X24868182Y-37795771D01*
X24868191Y-37795776D01*
X24873415Y-37797940D01*
X24927817Y-37841783D01*
X24949880Y-37908078D01*
X24932599Y-37975777D01*
X24881460Y-38023386D01*
X24873415Y-38027060D01*
X24868191Y-38029223D01*
X24868182Y-38029228D01*
X24753458Y-38105885D01*
X24753454Y-38105888D01*
X24655888Y-38203454D01*
X24655885Y-38203458D01*
X24579228Y-38318182D01*
X24579221Y-38318195D01*
X24526421Y-38445667D01*
X24526418Y-38445677D01*
X24499500Y-38581004D01*
X24499500Y-38581007D01*
X24499500Y-38718993D01*
X24499500Y-38718995D01*
X24499499Y-38718995D01*
X24526418Y-38854322D01*
X24526421Y-38854332D01*
X24579221Y-38981804D01*
X24579228Y-38981817D01*
X24655885Y-39096541D01*
X24655888Y-39096545D01*
X24753454Y-39194111D01*
X24753458Y-39194114D01*
X24868182Y-39270771D01*
X24868195Y-39270778D01*
X24995667Y-39323578D01*
X24995672Y-39323580D01*
X24995676Y-39323580D01*
X24995677Y-39323581D01*
X25131004Y-39350500D01*
X25131007Y-39350500D01*
X25268995Y-39350500D01*
X25360041Y-39332389D01*
X25404328Y-39323580D01*
X25432256Y-39312011D01*
X25460037Y-39300505D01*
X25531804Y-39270778D01*
X25531804Y-39270777D01*
X25531811Y-39270775D01*
X25646542Y-39194114D01*
X25744114Y-39096542D01*
X25820775Y-38981811D01*
X25873580Y-38854328D01*
X25895016Y-38746565D01*
X25900500Y-38718995D01*
X25900500Y-38581004D01*
X25873581Y-38445677D01*
X25873580Y-38445676D01*
X25873580Y-38445672D01*
X25873578Y-38445667D01*
X25820778Y-38318195D01*
X25820771Y-38318182D01*
X25744114Y-38203458D01*
X25744111Y-38203454D01*
X25646545Y-38105888D01*
X25646541Y-38105885D01*
X25531817Y-38029228D01*
X25531804Y-38029221D01*
X25526588Y-38027061D01*
X25472184Y-37983220D01*
X25450119Y-37916926D01*
X25467398Y-37849227D01*
X25518535Y-37801616D01*
X25526588Y-37797939D01*
X25531804Y-37795778D01*
X25531804Y-37795777D01*
X25531811Y-37795775D01*
X25646542Y-37719114D01*
X25744114Y-37621542D01*
X25820775Y-37506811D01*
X25820778Y-37506804D01*
X25822939Y-37501588D01*
X25866780Y-37447184D01*
X25933074Y-37425119D01*
X26000773Y-37442398D01*
X26048384Y-37493535D01*
X26052061Y-37501588D01*
X26054221Y-37506804D01*
X26054228Y-37506817D01*
X26130885Y-37621541D01*
X26130888Y-37621545D01*
X26228454Y-37719111D01*
X26228458Y-37719114D01*
X26343182Y-37795771D01*
X26343195Y-37795778D01*
X26470667Y-37848578D01*
X26470672Y-37848580D01*
X26470676Y-37848580D01*
X26470677Y-37848581D01*
X26606004Y-37875500D01*
X26606007Y-37875500D01*
X26743995Y-37875500D01*
X26835041Y-37857389D01*
X26879328Y-37848580D01*
X27006811Y-37795775D01*
X27121542Y-37719114D01*
X27219114Y-37621542D01*
X27295775Y-37506811D01*
X27297939Y-37501588D01*
X27329613Y-37425119D01*
X27348580Y-37379328D01*
X27364260Y-37300499D01*
X27375500Y-37243995D01*
X27375500Y-37106004D01*
X27348581Y-36970677D01*
X27348580Y-36970676D01*
X27348580Y-36970672D01*
X27348578Y-36970667D01*
X27295778Y-36843195D01*
X27295771Y-36843182D01*
X27219114Y-36728458D01*
X27219111Y-36728454D01*
X27121545Y-36630888D01*
X27121541Y-36630885D01*
X27006817Y-36554228D01*
X27006804Y-36554221D01*
X26947427Y-36529627D01*
X26879332Y-36501421D01*
X26879322Y-36501418D01*
X26743995Y-36474500D01*
X26743993Y-36474500D01*
X26606007Y-36474500D01*
X26606005Y-36474500D01*
X26470677Y-36501418D01*
X26470667Y-36501421D01*
X26343195Y-36554221D01*
X26343182Y-36554228D01*
X26228458Y-36630885D01*
X26228454Y-36630888D01*
X26130888Y-36728454D01*
X26130885Y-36728458D01*
X26054228Y-36843182D01*
X26054223Y-36843191D01*
X26052060Y-36848415D01*
X26008217Y-36902817D01*
X25941922Y-36924880D01*
X25874223Y-36907599D01*
X25826614Y-36856460D01*
X25822940Y-36848415D01*
X25820776Y-36843191D01*
X25820771Y-36843182D01*
X25744114Y-36728458D01*
X25744111Y-36728454D01*
X25646545Y-36630888D01*
X25646541Y-36630885D01*
X25531817Y-36554228D01*
X25531804Y-36554221D01*
X25526588Y-36552061D01*
X25472184Y-36508220D01*
X25450119Y-36441926D01*
X25455421Y-36421153D01*
X36699500Y-36421153D01*
X36699500Y-36578846D01*
X36730261Y-36733489D01*
X36730264Y-36733501D01*
X36790602Y-36879172D01*
X36790609Y-36879185D01*
X36878210Y-37010288D01*
X36878213Y-37010292D01*
X36989707Y-37121786D01*
X36989711Y-37121789D01*
X37120814Y-37209390D01*
X37126191Y-37212264D01*
X37125150Y-37214210D01*
X37171836Y-37251812D01*
X37193919Y-37318100D01*
X37176658Y-37385804D01*
X37157681Y-37410240D01*
X37078210Y-37489711D01*
X36990609Y-37620814D01*
X36990602Y-37620827D01*
X36930264Y-37766498D01*
X36930261Y-37766510D01*
X36899500Y-37921153D01*
X36899500Y-38078846D01*
X36930261Y-38233489D01*
X36930264Y-38233501D01*
X36990602Y-38379172D01*
X36990609Y-38379185D01*
X37078210Y-38510288D01*
X37078213Y-38510292D01*
X37189707Y-38621786D01*
X37189711Y-38621789D01*
X37320814Y-38709390D01*
X37320827Y-38709397D01*
X37449823Y-38762828D01*
X37466503Y-38769737D01*
X37621153Y-38800499D01*
X37621156Y-38800500D01*
X37621158Y-38800500D01*
X37778844Y-38800500D01*
X37778845Y-38800499D01*
X37933497Y-38769737D01*
X38079179Y-38709394D01*
X38210289Y-38621789D01*
X38321789Y-38510289D01*
X38409394Y-38379179D01*
X38469737Y-38233497D01*
X38500500Y-38078842D01*
X38500500Y-37921158D01*
X38500500Y-37921155D01*
X38500499Y-37921153D01*
X38497898Y-37908078D01*
X38469737Y-37766503D01*
X38450955Y-37721158D01*
X38450953Y-37721153D01*
X51599500Y-37721153D01*
X51599500Y-37878846D01*
X51630261Y-38033489D01*
X51630264Y-38033501D01*
X51690602Y-38179172D01*
X51690609Y-38179185D01*
X51778210Y-38310288D01*
X51778213Y-38310292D01*
X51889707Y-38421786D01*
X51889711Y-38421789D01*
X52020814Y-38509390D01*
X52020827Y-38509397D01*
X52106830Y-38545020D01*
X52166503Y-38569737D01*
X52223146Y-38581004D01*
X52318430Y-38599958D01*
X52380341Y-38632343D01*
X52414916Y-38693059D01*
X52411176Y-38762828D01*
X52370309Y-38819500D01*
X52341691Y-38836136D01*
X52255684Y-38871760D01*
X52255671Y-38871767D01*
X52124568Y-38959368D01*
X52124564Y-38959371D01*
X52013070Y-39070865D01*
X52013067Y-39070869D01*
X51925466Y-39201972D01*
X51925459Y-39201985D01*
X51865121Y-39347656D01*
X51865118Y-39347668D01*
X51834357Y-39502311D01*
X51834357Y-39660004D01*
X51865118Y-39814647D01*
X51865121Y-39814659D01*
X51925459Y-39960330D01*
X51925466Y-39960343D01*
X52013067Y-40091446D01*
X52013070Y-40091450D01*
X52124564Y-40202944D01*
X52124568Y-40202947D01*
X52255671Y-40290548D01*
X52255684Y-40290555D01*
X52401355Y-40350893D01*
X52401360Y-40350895D01*
X52556010Y-40381657D01*
X52556013Y-40381658D01*
X52556015Y-40381658D01*
X52713701Y-40381658D01*
X52713702Y-40381657D01*
X52868354Y-40350895D01*
X52990022Y-40300499D01*
X53014029Y-40290555D01*
X53014029Y-40290554D01*
X53014036Y-40290552D01*
X53145146Y-40202947D01*
X53256646Y-40091447D01*
X53344251Y-39960337D01*
X53404594Y-39814655D01*
X53435357Y-39660000D01*
X53435357Y-39502316D01*
X53435357Y-39502313D01*
X53435356Y-39502311D01*
X53432975Y-39490343D01*
X53404594Y-39347661D01*
X53394620Y-39323581D01*
X53351456Y-39219372D01*
X53344252Y-39201981D01*
X53344247Y-39201972D01*
X53328234Y-39178007D01*
X57271000Y-39178007D01*
X57271000Y-39335700D01*
X57301761Y-39490343D01*
X57301764Y-39490355D01*
X57362102Y-39636026D01*
X57362109Y-39636039D01*
X57449710Y-39767142D01*
X57449713Y-39767146D01*
X57561207Y-39878640D01*
X57561211Y-39878643D01*
X57692314Y-39966244D01*
X57692327Y-39966251D01*
X57798646Y-40010289D01*
X57838003Y-40026591D01*
X57992653Y-40057353D01*
X57992656Y-40057354D01*
X57992658Y-40057354D01*
X58150344Y-40057354D01*
X58150345Y-40057353D01*
X58304997Y-40026591D01*
X58450679Y-39966248D01*
X58581789Y-39878643D01*
X58693289Y-39767143D01*
X58780894Y-39636033D01*
X58841237Y-39490351D01*
X58872000Y-39335696D01*
X58872000Y-39178012D01*
X58872000Y-39178009D01*
X58871999Y-39178007D01*
X58860624Y-39120821D01*
X58841237Y-39023357D01*
X58835452Y-39009390D01*
X58780897Y-38877681D01*
X58780890Y-38877668D01*
X58693289Y-38746565D01*
X58693286Y-38746561D01*
X58581792Y-38635067D01*
X58581788Y-38635064D01*
X58450685Y-38547463D01*
X58450672Y-38547456D01*
X58305001Y-38487118D01*
X58304989Y-38487115D01*
X58150345Y-38456354D01*
X58150342Y-38456354D01*
X57992658Y-38456354D01*
X57992655Y-38456354D01*
X57838010Y-38487115D01*
X57837998Y-38487118D01*
X57692327Y-38547456D01*
X57692314Y-38547463D01*
X57561211Y-38635064D01*
X57561207Y-38635067D01*
X57449713Y-38746561D01*
X57449710Y-38746565D01*
X57362109Y-38877668D01*
X57362102Y-38877681D01*
X57301764Y-39023352D01*
X57301761Y-39023364D01*
X57271000Y-39178007D01*
X53328234Y-39178007D01*
X53256646Y-39070869D01*
X53256643Y-39070865D01*
X53145149Y-38959371D01*
X53145145Y-38959368D01*
X53014042Y-38871767D01*
X53014029Y-38871760D01*
X52868358Y-38811422D01*
X52868348Y-38811419D01*
X52716425Y-38781199D01*
X52654514Y-38748814D01*
X52619940Y-38688098D01*
X52623681Y-38618328D01*
X52664547Y-38561657D01*
X52693157Y-38545025D01*
X52779179Y-38509394D01*
X52910289Y-38421789D01*
X53021789Y-38310289D01*
X53109394Y-38179179D01*
X53169737Y-38033497D01*
X53200500Y-37878842D01*
X53200500Y-37721158D01*
X53200500Y-37721155D01*
X53200499Y-37721153D01*
X53183061Y-37633489D01*
X53169737Y-37566503D01*
X53169735Y-37566498D01*
X53109397Y-37420827D01*
X53109390Y-37420814D01*
X53084763Y-37383957D01*
X53042798Y-37321153D01*
X53799500Y-37321153D01*
X53799500Y-37478846D01*
X53830261Y-37633489D01*
X53830264Y-37633501D01*
X53890602Y-37779172D01*
X53890609Y-37779185D01*
X53978210Y-37910288D01*
X53978213Y-37910292D01*
X54089707Y-38021786D01*
X54089711Y-38021789D01*
X54220814Y-38109390D01*
X54220827Y-38109397D01*
X54366498Y-38169735D01*
X54366503Y-38169737D01*
X54521153Y-38200499D01*
X54521156Y-38200500D01*
X54521158Y-38200500D01*
X54678844Y-38200500D01*
X54678845Y-38200499D01*
X54833497Y-38169737D01*
X54979179Y-38109394D01*
X55110289Y-38021789D01*
X55221789Y-37910289D01*
X55309394Y-37779179D01*
X55369737Y-37633497D01*
X55400500Y-37478842D01*
X55400500Y-37321158D01*
X55400500Y-37321155D01*
X55400499Y-37321153D01*
X55379621Y-37216193D01*
X55369737Y-37166503D01*
X55338298Y-37090602D01*
X55309397Y-37020827D01*
X55309390Y-37020814D01*
X55221789Y-36889711D01*
X55221786Y-36889707D01*
X55110292Y-36778213D01*
X55110288Y-36778210D01*
X54979185Y-36690609D01*
X54979172Y-36690602D01*
X54833501Y-36630264D01*
X54833489Y-36630261D01*
X54678845Y-36599500D01*
X54678842Y-36599500D01*
X54521158Y-36599500D01*
X54521155Y-36599500D01*
X54366510Y-36630261D01*
X54366498Y-36630264D01*
X54220827Y-36690602D01*
X54220814Y-36690609D01*
X54089711Y-36778210D01*
X54089707Y-36778213D01*
X53978213Y-36889707D01*
X53978210Y-36889711D01*
X53890609Y-37020814D01*
X53890602Y-37020827D01*
X53830264Y-37166498D01*
X53830261Y-37166510D01*
X53799500Y-37321153D01*
X53042798Y-37321153D01*
X53021789Y-37289711D01*
X53021786Y-37289707D01*
X52910292Y-37178213D01*
X52910288Y-37178210D01*
X52779185Y-37090609D01*
X52779172Y-37090602D01*
X52633501Y-37030264D01*
X52633489Y-37030261D01*
X52478845Y-36999500D01*
X52478842Y-36999500D01*
X52321158Y-36999500D01*
X52321155Y-36999500D01*
X52166510Y-37030261D01*
X52166498Y-37030264D01*
X52020827Y-37090602D01*
X52020814Y-37090609D01*
X51889711Y-37178210D01*
X51889707Y-37178213D01*
X51778213Y-37289707D01*
X51778210Y-37289711D01*
X51690609Y-37420814D01*
X51690602Y-37420827D01*
X51630264Y-37566498D01*
X51630261Y-37566510D01*
X51599500Y-37721153D01*
X38450953Y-37721153D01*
X38409397Y-37620827D01*
X38409390Y-37620814D01*
X38321789Y-37489711D01*
X38321786Y-37489707D01*
X38210292Y-37378213D01*
X38210288Y-37378210D01*
X38079185Y-37290609D01*
X38073809Y-37287736D01*
X38074847Y-37285793D01*
X38028147Y-37248165D01*
X38006079Y-37181872D01*
X38023355Y-37114171D01*
X38042315Y-37089762D01*
X38121789Y-37010289D01*
X38209394Y-36879179D01*
X38269737Y-36733497D01*
X38300500Y-36578842D01*
X38300500Y-36421158D01*
X38300500Y-36421155D01*
X38300499Y-36421153D01*
X38280533Y-36320778D01*
X38269737Y-36266503D01*
X38260462Y-36244111D01*
X38209397Y-36120827D01*
X38209390Y-36120814D01*
X38121789Y-35989711D01*
X38121786Y-35989707D01*
X38010292Y-35878213D01*
X38010288Y-35878210D01*
X37924897Y-35821153D01*
X45999500Y-35821153D01*
X45999500Y-35978846D01*
X46030261Y-36133489D01*
X46030264Y-36133501D01*
X46090602Y-36279172D01*
X46090609Y-36279185D01*
X46178210Y-36410288D01*
X46178213Y-36410292D01*
X46289707Y-36521786D01*
X46289711Y-36521789D01*
X46420814Y-36609390D01*
X46420827Y-36609397D01*
X46566498Y-36669735D01*
X46566503Y-36669737D01*
X46721153Y-36700499D01*
X46721156Y-36700500D01*
X46721158Y-36700500D01*
X46878844Y-36700500D01*
X46878845Y-36700499D01*
X47033497Y-36669737D01*
X47179179Y-36609394D01*
X47310289Y-36521789D01*
X47410925Y-36421153D01*
X56699500Y-36421153D01*
X56699500Y-36578846D01*
X56730261Y-36733489D01*
X56730264Y-36733501D01*
X56790602Y-36879172D01*
X56790609Y-36879185D01*
X56878210Y-37010288D01*
X56878213Y-37010292D01*
X56989707Y-37121786D01*
X56989711Y-37121789D01*
X57120814Y-37209390D01*
X57120827Y-37209397D01*
X57266498Y-37269735D01*
X57266503Y-37269737D01*
X57421153Y-37300499D01*
X57421156Y-37300500D01*
X57421158Y-37300500D01*
X57578844Y-37300500D01*
X57578845Y-37300499D01*
X57733497Y-37269737D01*
X57879179Y-37209394D01*
X58010289Y-37121789D01*
X58121789Y-37010289D01*
X58209394Y-36879179D01*
X58269737Y-36733497D01*
X58300500Y-36578842D01*
X58300500Y-36421158D01*
X58300500Y-36421155D01*
X58300499Y-36421153D01*
X58280533Y-36320778D01*
X58269737Y-36266503D01*
X58260462Y-36244111D01*
X58209397Y-36120827D01*
X58209390Y-36120814D01*
X58121789Y-35989711D01*
X58121786Y-35989707D01*
X58010292Y-35878213D01*
X58010288Y-35878210D01*
X57879185Y-35790609D01*
X57879172Y-35790602D01*
X57733501Y-35730264D01*
X57733489Y-35730261D01*
X57578845Y-35699500D01*
X57578842Y-35699500D01*
X57421158Y-35699500D01*
X57421155Y-35699500D01*
X57266510Y-35730261D01*
X57266498Y-35730264D01*
X57120827Y-35790602D01*
X57120814Y-35790609D01*
X56989711Y-35878210D01*
X56989707Y-35878213D01*
X56878213Y-35989707D01*
X56878210Y-35989711D01*
X56790609Y-36120814D01*
X56790602Y-36120827D01*
X56730264Y-36266498D01*
X56730261Y-36266510D01*
X56699500Y-36421153D01*
X47410925Y-36421153D01*
X47421789Y-36410289D01*
X47480155Y-36322939D01*
X47509390Y-36279185D01*
X47509390Y-36279184D01*
X47509394Y-36279179D01*
X47569737Y-36133497D01*
X47600500Y-35978842D01*
X47600500Y-35821158D01*
X47600500Y-35821155D01*
X47600499Y-35821153D01*
X47580734Y-35721789D01*
X47569737Y-35666503D01*
X47546452Y-35610288D01*
X47509397Y-35520827D01*
X47509390Y-35520814D01*
X47421789Y-35389711D01*
X47421786Y-35389707D01*
X47310292Y-35278213D01*
X47310288Y-35278210D01*
X47179185Y-35190609D01*
X47179172Y-35190602D01*
X47033501Y-35130264D01*
X47033489Y-35130261D01*
X46878845Y-35099500D01*
X46878842Y-35099500D01*
X46721158Y-35099500D01*
X46721155Y-35099500D01*
X46566510Y-35130261D01*
X46566498Y-35130264D01*
X46420827Y-35190602D01*
X46420814Y-35190609D01*
X46289711Y-35278210D01*
X46289707Y-35278213D01*
X46178213Y-35389707D01*
X46178210Y-35389711D01*
X46090609Y-35520814D01*
X46090602Y-35520827D01*
X46030264Y-35666498D01*
X46030261Y-35666510D01*
X45999500Y-35821153D01*
X37924897Y-35821153D01*
X37879185Y-35790609D01*
X37879172Y-35790602D01*
X37733501Y-35730264D01*
X37733489Y-35730261D01*
X37578845Y-35699500D01*
X37578842Y-35699500D01*
X37421158Y-35699500D01*
X37421155Y-35699500D01*
X37266510Y-35730261D01*
X37266498Y-35730264D01*
X37120827Y-35790602D01*
X37120814Y-35790609D01*
X36989711Y-35878210D01*
X36989707Y-35878213D01*
X36878213Y-35989707D01*
X36878210Y-35989711D01*
X36790609Y-36120814D01*
X36790602Y-36120827D01*
X36730264Y-36266498D01*
X36730261Y-36266510D01*
X36699500Y-36421153D01*
X25455421Y-36421153D01*
X25467398Y-36374227D01*
X25518535Y-36326616D01*
X25526588Y-36322939D01*
X25531804Y-36320778D01*
X25531804Y-36320777D01*
X25531811Y-36320775D01*
X25646542Y-36244114D01*
X25744114Y-36146542D01*
X25820775Y-36031811D01*
X25873580Y-35904328D01*
X25892464Y-35809394D01*
X25900500Y-35768995D01*
X25900500Y-35631004D01*
X25873581Y-35495677D01*
X25873580Y-35495676D01*
X25873580Y-35495672D01*
X25866751Y-35479185D01*
X25820778Y-35368195D01*
X25820771Y-35368182D01*
X25744114Y-35253458D01*
X25744111Y-35253454D01*
X25646545Y-35155888D01*
X25646541Y-35155885D01*
X25531817Y-35079228D01*
X25531804Y-35079221D01*
X25404332Y-35026421D01*
X25404322Y-35026418D01*
X25268995Y-34999500D01*
X25268993Y-34999500D01*
X25131007Y-34999500D01*
X25131005Y-34999500D01*
X24995677Y-35026418D01*
X24995667Y-35026421D01*
X24868195Y-35079221D01*
X24868182Y-35079228D01*
X24753458Y-35155885D01*
X24753454Y-35155888D01*
X24655888Y-35253454D01*
X24655885Y-35253458D01*
X24579228Y-35368182D01*
X24579221Y-35368195D01*
X24526421Y-35495667D01*
X24526418Y-35495677D01*
X24499500Y-35631004D01*
X24499500Y-35631007D01*
X24499500Y-35768993D01*
X24499500Y-35768995D01*
X24499499Y-35768995D01*
X24526418Y-35904322D01*
X24526421Y-35904332D01*
X24579221Y-36031804D01*
X24579228Y-36031817D01*
X24655885Y-36146541D01*
X24655888Y-36146545D01*
X24753454Y-36244111D01*
X24753458Y-36244114D01*
X24868182Y-36320771D01*
X24868191Y-36320776D01*
X24873415Y-36322940D01*
X24927817Y-36366783D01*
X24949880Y-36433078D01*
X24932599Y-36500777D01*
X24881460Y-36548386D01*
X24873415Y-36552060D01*
X24868191Y-36554223D01*
X24868182Y-36554228D01*
X24753458Y-36630885D01*
X24753454Y-36630888D01*
X24655888Y-36728454D01*
X24655885Y-36728458D01*
X24579228Y-36843182D01*
X24579223Y-36843191D01*
X24577060Y-36848415D01*
X24533217Y-36902817D01*
X24466922Y-36924880D01*
X24399223Y-36907599D01*
X24351614Y-36856460D01*
X24347940Y-36848415D01*
X24345776Y-36843191D01*
X24345771Y-36843182D01*
X24269114Y-36728458D01*
X24269111Y-36728454D01*
X24171545Y-36630888D01*
X24171541Y-36630885D01*
X24056817Y-36554228D01*
X24056804Y-36554221D01*
X23929332Y-36501421D01*
X23929322Y-36501418D01*
X23793995Y-36474500D01*
X23793993Y-36474500D01*
X23656007Y-36474500D01*
X23656005Y-36474500D01*
X23520677Y-36501418D01*
X23520667Y-36501421D01*
X23393195Y-36554221D01*
X23393182Y-36554228D01*
X23278458Y-36630885D01*
X23278454Y-36630888D01*
X23180888Y-36728454D01*
X23180885Y-36728458D01*
X23104228Y-36843182D01*
X23104221Y-36843195D01*
X23051421Y-36970667D01*
X23051418Y-36970677D01*
X23024500Y-37106004D01*
X23024500Y-37106007D01*
X23024500Y-37243993D01*
X23024500Y-37243995D01*
X23024499Y-37243995D01*
X12500500Y-37243995D01*
X12500500Y-33621153D01*
X26263014Y-33621153D01*
X26263014Y-33778846D01*
X26293775Y-33933489D01*
X26293778Y-33933501D01*
X26354116Y-34079172D01*
X26354123Y-34079185D01*
X26441724Y-34210288D01*
X26441727Y-34210292D01*
X26553221Y-34321786D01*
X26553225Y-34321789D01*
X26684328Y-34409390D01*
X26684341Y-34409397D01*
X26774463Y-34446726D01*
X26830017Y-34469737D01*
X26984667Y-34500499D01*
X26984670Y-34500500D01*
X26984672Y-34500500D01*
X27142358Y-34500500D01*
X27142359Y-34500499D01*
X27297011Y-34469737D01*
X27442693Y-34409394D01*
X27442698Y-34409390D01*
X27442701Y-34409389D01*
X27457865Y-34399257D01*
X27524542Y-34378378D01*
X27591922Y-34396862D01*
X27595649Y-34399257D01*
X27610812Y-34409389D01*
X27610827Y-34409397D01*
X27700949Y-34446726D01*
X27756503Y-34469737D01*
X27911153Y-34500499D01*
X27911156Y-34500500D01*
X27911158Y-34500500D01*
X28068844Y-34500500D01*
X28068845Y-34500499D01*
X28223497Y-34469737D01*
X28336524Y-34422919D01*
X28405991Y-34415451D01*
X28468471Y-34446726D01*
X28504123Y-34506815D01*
X28501630Y-34576640D01*
X28487078Y-34606371D01*
X28410608Y-34720816D01*
X28410602Y-34720827D01*
X28350264Y-34866498D01*
X28350261Y-34866510D01*
X28319500Y-35021153D01*
X28319500Y-35178846D01*
X28350261Y-35333489D01*
X28350264Y-35333501D01*
X28410602Y-35479172D01*
X28410609Y-35479185D01*
X28498210Y-35610288D01*
X28498213Y-35610292D01*
X28609707Y-35721786D01*
X28609711Y-35721789D01*
X28740814Y-35809390D01*
X28740827Y-35809397D01*
X28886498Y-35869735D01*
X28886503Y-35869737D01*
X29041153Y-35900499D01*
X29041156Y-35900500D01*
X29041158Y-35900500D01*
X29198844Y-35900500D01*
X29198845Y-35900499D01*
X29353497Y-35869737D01*
X29499179Y-35809394D01*
X29630289Y-35721789D01*
X29741789Y-35610289D01*
X29829394Y-35479179D01*
X29889737Y-35333497D01*
X29900734Y-35278211D01*
X29901460Y-35274564D01*
X29933845Y-35212653D01*
X29994560Y-35178079D01*
X30064330Y-35181818D01*
X30121002Y-35222685D01*
X30137638Y-35251303D01*
X30190602Y-35379172D01*
X30190609Y-35379185D01*
X30278210Y-35510288D01*
X30278213Y-35510292D01*
X30389707Y-35621786D01*
X30389711Y-35621789D01*
X30520814Y-35709390D01*
X30520827Y-35709397D01*
X30666498Y-35769735D01*
X30666503Y-35769737D01*
X30821153Y-35800499D01*
X30821156Y-35800500D01*
X30821158Y-35800500D01*
X30978844Y-35800500D01*
X30978845Y-35800499D01*
X31133497Y-35769737D01*
X31279179Y-35709394D01*
X31410289Y-35621789D01*
X31521789Y-35510289D01*
X31609394Y-35379179D01*
X31669737Y-35233497D01*
X31700500Y-35078842D01*
X31700500Y-34921158D01*
X31700500Y-34921155D01*
X31700499Y-34921153D01*
X31669738Y-34766510D01*
X31669737Y-34766503D01*
X31633427Y-34678842D01*
X31609397Y-34620827D01*
X31609390Y-34620814D01*
X31521789Y-34489711D01*
X31521786Y-34489707D01*
X31410292Y-34378213D01*
X31410288Y-34378210D01*
X31279185Y-34290609D01*
X31279172Y-34290602D01*
X31133501Y-34230264D01*
X31133489Y-34230261D01*
X30978845Y-34199500D01*
X30978842Y-34199500D01*
X30821158Y-34199500D01*
X30821155Y-34199500D01*
X30666510Y-34230261D01*
X30666498Y-34230264D01*
X30520827Y-34290602D01*
X30520814Y-34290609D01*
X30389711Y-34378210D01*
X30389707Y-34378213D01*
X30278213Y-34489707D01*
X30278210Y-34489711D01*
X30190609Y-34620814D01*
X30190602Y-34620827D01*
X30130264Y-34766498D01*
X30130261Y-34766507D01*
X30118539Y-34825437D01*
X30086153Y-34887348D01*
X30025436Y-34921921D01*
X29955667Y-34918180D01*
X29898996Y-34877313D01*
X29882361Y-34848696D01*
X29876065Y-34833497D01*
X29848314Y-34766498D01*
X29829397Y-34720827D01*
X29829390Y-34720814D01*
X29741789Y-34589711D01*
X29741786Y-34589707D01*
X29630292Y-34478213D01*
X29630288Y-34478210D01*
X29499185Y-34390609D01*
X29499172Y-34390602D01*
X29353501Y-34330264D01*
X29353489Y-34330261D01*
X29198845Y-34299500D01*
X29198842Y-34299500D01*
X29041158Y-34299500D01*
X29041155Y-34299500D01*
X28886510Y-34330261D01*
X28886498Y-34330264D01*
X28773476Y-34377079D01*
X28704006Y-34384548D01*
X28641527Y-34353272D01*
X28605876Y-34293183D01*
X28608370Y-34223358D01*
X28622922Y-34193627D01*
X28632576Y-34179179D01*
X28699394Y-34079179D01*
X28759737Y-33933497D01*
X28790500Y-33778842D01*
X28790500Y-33721153D01*
X32199500Y-33721153D01*
X32199500Y-33878846D01*
X32230261Y-34033489D01*
X32230264Y-34033501D01*
X32290602Y-34179172D01*
X32290609Y-34179185D01*
X32378210Y-34310288D01*
X32378213Y-34310292D01*
X32489707Y-34421786D01*
X32489711Y-34421789D01*
X32620814Y-34509390D01*
X32620827Y-34509397D01*
X32766498Y-34569735D01*
X32766503Y-34569737D01*
X32921153Y-34600499D01*
X32921156Y-34600500D01*
X32921158Y-34600500D01*
X33078844Y-34600500D01*
X33078845Y-34600499D01*
X33233497Y-34569737D01*
X33350790Y-34521153D01*
X48699500Y-34521153D01*
X48699500Y-34678846D01*
X48730261Y-34833489D01*
X48730264Y-34833501D01*
X48790602Y-34979172D01*
X48790609Y-34979185D01*
X48878210Y-35110288D01*
X48878213Y-35110292D01*
X48989707Y-35221786D01*
X48989711Y-35221789D01*
X49120814Y-35309390D01*
X49120827Y-35309397D01*
X49262749Y-35368182D01*
X49266503Y-35369737D01*
X49421153Y-35400499D01*
X49421156Y-35400500D01*
X49421158Y-35400500D01*
X49578844Y-35400500D01*
X49578845Y-35400499D01*
X49733497Y-35369737D01*
X49879179Y-35309394D01*
X50010289Y-35221789D01*
X50121789Y-35110289D01*
X50209394Y-34979179D01*
X50269737Y-34833497D01*
X50300500Y-34678842D01*
X50300500Y-34521158D01*
X50300500Y-34521155D01*
X50300499Y-34521153D01*
X50280734Y-34421788D01*
X50269737Y-34366503D01*
X50264237Y-34353224D01*
X50209397Y-34220827D01*
X50209390Y-34220814D01*
X50121789Y-34089711D01*
X50121786Y-34089707D01*
X50010292Y-33978213D01*
X50010288Y-33978210D01*
X49879185Y-33890609D01*
X49879172Y-33890602D01*
X49733501Y-33830264D01*
X49733489Y-33830261D01*
X49578845Y-33799500D01*
X49578842Y-33799500D01*
X49421158Y-33799500D01*
X49421155Y-33799500D01*
X49266510Y-33830261D01*
X49266498Y-33830264D01*
X49120827Y-33890602D01*
X49120814Y-33890609D01*
X48989711Y-33978210D01*
X48989707Y-33978213D01*
X48878213Y-34089707D01*
X48878210Y-34089711D01*
X48790609Y-34220814D01*
X48790602Y-34220827D01*
X48730264Y-34366498D01*
X48730261Y-34366510D01*
X48699500Y-34521153D01*
X33350790Y-34521153D01*
X33379179Y-34509394D01*
X33510289Y-34421789D01*
X33621789Y-34310289D01*
X33709394Y-34179179D01*
X33769737Y-34033497D01*
X33800500Y-33878842D01*
X33800500Y-33721158D01*
X33800500Y-33721155D01*
X33800499Y-33721153D01*
X33798338Y-33710288D01*
X33769737Y-33566503D01*
X33728314Y-33466498D01*
X33709397Y-33420827D01*
X33709390Y-33420814D01*
X33621789Y-33289711D01*
X33621786Y-33289707D01*
X33510292Y-33178213D01*
X33510288Y-33178210D01*
X33424897Y-33121153D01*
X35199500Y-33121153D01*
X35199500Y-33278846D01*
X35230261Y-33433489D01*
X35230264Y-33433501D01*
X35290602Y-33579172D01*
X35290609Y-33579185D01*
X35378210Y-33710288D01*
X35378213Y-33710292D01*
X35489707Y-33821786D01*
X35489711Y-33821789D01*
X35620814Y-33909390D01*
X35620827Y-33909397D01*
X35766498Y-33969735D01*
X35766503Y-33969737D01*
X35921153Y-34000499D01*
X35921156Y-34000500D01*
X35921158Y-34000500D01*
X36078844Y-34000500D01*
X36078845Y-34000499D01*
X36233497Y-33969737D01*
X36379179Y-33909394D01*
X36510289Y-33821789D01*
X36621789Y-33710289D01*
X36709394Y-33579179D01*
X36769737Y-33433497D01*
X36800500Y-33278842D01*
X36800500Y-33121158D01*
X36800500Y-33121155D01*
X36800499Y-33121153D01*
X36776548Y-33000745D01*
X36769737Y-32966503D01*
X36769735Y-32966498D01*
X36709397Y-32820827D01*
X36709390Y-32820814D01*
X36621789Y-32689711D01*
X36621786Y-32689707D01*
X36510292Y-32578213D01*
X36510288Y-32578210D01*
X36379185Y-32490609D01*
X36379172Y-32490602D01*
X36233501Y-32430264D01*
X36233489Y-32430261D01*
X36078845Y-32399500D01*
X36078842Y-32399500D01*
X35921158Y-32399500D01*
X35921155Y-32399500D01*
X35766510Y-32430261D01*
X35766498Y-32430264D01*
X35620827Y-32490602D01*
X35620814Y-32490609D01*
X35489711Y-32578210D01*
X35489707Y-32578213D01*
X35378213Y-32689707D01*
X35378210Y-32689711D01*
X35290609Y-32820814D01*
X35290602Y-32820827D01*
X35230264Y-32966498D01*
X35230261Y-32966510D01*
X35199500Y-33121153D01*
X33424897Y-33121153D01*
X33379185Y-33090609D01*
X33379172Y-33090602D01*
X33233501Y-33030264D01*
X33233489Y-33030261D01*
X33078845Y-32999500D01*
X33078842Y-32999500D01*
X32921158Y-32999500D01*
X32921155Y-32999500D01*
X32766510Y-33030261D01*
X32766498Y-33030264D01*
X32620827Y-33090602D01*
X32620814Y-33090609D01*
X32489711Y-33178210D01*
X32489707Y-33178213D01*
X32378213Y-33289707D01*
X32378210Y-33289711D01*
X32290609Y-33420814D01*
X32290602Y-33420827D01*
X32230264Y-33566498D01*
X32230261Y-33566510D01*
X32199500Y-33721153D01*
X28790500Y-33721153D01*
X28790500Y-33621158D01*
X28790500Y-33621155D01*
X28790499Y-33621153D01*
X28759738Y-33466510D01*
X28759737Y-33466503D01*
X28740812Y-33420814D01*
X28699397Y-33320827D01*
X28699390Y-33320814D01*
X28611789Y-33189711D01*
X28611786Y-33189707D01*
X28500292Y-33078213D01*
X28500288Y-33078210D01*
X28369185Y-32990609D01*
X28369172Y-32990602D01*
X28223501Y-32930264D01*
X28223489Y-32930261D01*
X28068845Y-32899500D01*
X28068842Y-32899500D01*
X27911158Y-32899500D01*
X27911155Y-32899500D01*
X27756510Y-32930261D01*
X27756498Y-32930264D01*
X27610828Y-32990602D01*
X27610817Y-32990608D01*
X27595647Y-33000745D01*
X27528969Y-33021622D01*
X27461589Y-33003137D01*
X27457867Y-33000745D01*
X27442696Y-32990608D01*
X27442695Y-32990607D01*
X27442693Y-32990606D01*
X27442690Y-32990604D01*
X27442685Y-32990602D01*
X27297015Y-32930264D01*
X27297003Y-32930261D01*
X27142359Y-32899500D01*
X27142356Y-32899500D01*
X26984672Y-32899500D01*
X26984669Y-32899500D01*
X26830024Y-32930261D01*
X26830012Y-32930264D01*
X26684341Y-32990602D01*
X26684328Y-32990609D01*
X26553225Y-33078210D01*
X26553221Y-33078213D01*
X26441727Y-33189707D01*
X26441724Y-33189711D01*
X26354123Y-33320814D01*
X26354116Y-33320827D01*
X26293778Y-33466498D01*
X26293775Y-33466510D01*
X26263014Y-33621153D01*
X12500500Y-33621153D01*
X12500500Y-31621153D01*
X40999500Y-31621153D01*
X40999500Y-31778846D01*
X41030261Y-31933489D01*
X41030264Y-31933501D01*
X41090602Y-32079172D01*
X41090609Y-32079185D01*
X41178210Y-32210288D01*
X41178213Y-32210292D01*
X41289707Y-32321786D01*
X41289711Y-32321789D01*
X41420814Y-32409390D01*
X41420827Y-32409397D01*
X41566498Y-32469735D01*
X41566503Y-32469737D01*
X41721153Y-32500499D01*
X41721156Y-32500500D01*
X41721158Y-32500500D01*
X41878844Y-32500500D01*
X41878845Y-32500499D01*
X42033497Y-32469737D01*
X42179179Y-32409394D01*
X42310289Y-32321789D01*
X42421789Y-32210289D01*
X42509394Y-32079179D01*
X42569737Y-31933497D01*
X42600500Y-31778842D01*
X42600500Y-31621158D01*
X42600500Y-31621155D01*
X42600499Y-31621153D01*
X42569738Y-31466510D01*
X42569737Y-31466503D01*
X42569735Y-31466498D01*
X42509397Y-31320827D01*
X42509390Y-31320814D01*
X42421789Y-31189711D01*
X42421786Y-31189707D01*
X42310292Y-31078213D01*
X42310288Y-31078210D01*
X42179185Y-30990609D01*
X42179172Y-30990602D01*
X42033501Y-30930264D01*
X42033489Y-30930261D01*
X41878845Y-30899500D01*
X41878842Y-30899500D01*
X41721158Y-30899500D01*
X41721155Y-30899500D01*
X41566510Y-30930261D01*
X41566498Y-30930264D01*
X41420827Y-30990602D01*
X41420814Y-30990609D01*
X41289711Y-31078210D01*
X41289707Y-31078213D01*
X41178213Y-31189707D01*
X41178210Y-31189711D01*
X41090609Y-31320814D01*
X41090602Y-31320827D01*
X41030264Y-31466498D01*
X41030261Y-31466510D01*
X40999500Y-31621153D01*
X12500500Y-31621153D01*
X12500500Y-29041577D01*
X20839500Y-29041577D01*
X20839500Y-29238422D01*
X20870290Y-29432826D01*
X20931117Y-29620029D01*
X21020341Y-29795141D01*
X21020476Y-29795405D01*
X21136172Y-29954646D01*
X21275354Y-30093828D01*
X21434595Y-30209524D01*
X21517455Y-30251743D01*
X21609970Y-30298882D01*
X21609972Y-30298882D01*
X21609975Y-30298884D01*
X21710317Y-30331487D01*
X21797173Y-30359709D01*
X21991578Y-30390500D01*
X21991583Y-30390500D01*
X22188422Y-30390500D01*
X22382826Y-30359709D01*
X22384328Y-30359221D01*
X22570025Y-30298884D01*
X22745405Y-30209524D01*
X22904646Y-30093828D01*
X23043828Y-29954646D01*
X23159524Y-29795405D01*
X23248884Y-29620025D01*
X23248884Y-29620022D01*
X23249795Y-29618236D01*
X23297769Y-29567440D01*
X23365590Y-29550644D01*
X23431725Y-29573181D01*
X23470765Y-29618235D01*
X23560905Y-29795145D01*
X23586319Y-29830125D01*
X23586320Y-29830125D01*
X24250000Y-29166445D01*
X24250000Y-29190028D01*
X24275896Y-29286675D01*
X24325924Y-29373325D01*
X24396675Y-29444076D01*
X24483325Y-29494104D01*
X24579972Y-29520000D01*
X24603553Y-29520000D01*
X23939873Y-30183677D01*
X23939873Y-30183678D01*
X23974858Y-30209096D01*
X24150164Y-30298418D01*
X24337294Y-30359221D01*
X24531618Y-30390000D01*
X24728382Y-30390000D01*
X24922705Y-30359221D01*
X25109835Y-30298418D01*
X25285143Y-30209095D01*
X25320125Y-30183678D01*
X25320126Y-30183678D01*
X24656448Y-29520000D01*
X24680028Y-29520000D01*
X24776675Y-29494104D01*
X24863325Y-29444076D01*
X24934076Y-29373325D01*
X24984104Y-29286675D01*
X25010000Y-29190028D01*
X25010000Y-29166447D01*
X25673678Y-29830126D01*
X25673678Y-29830125D01*
X25699097Y-29795141D01*
X25789515Y-29617685D01*
X25837489Y-29566888D01*
X25905310Y-29550093D01*
X25971445Y-29572630D01*
X26010485Y-29617684D01*
X26100905Y-29795145D01*
X26126319Y-29830125D01*
X26126320Y-29830125D01*
X26790000Y-29166445D01*
X26790000Y-29190028D01*
X26815896Y-29286675D01*
X26865924Y-29373325D01*
X26936675Y-29444076D01*
X27023325Y-29494104D01*
X27119972Y-29520000D01*
X27143553Y-29520000D01*
X26479873Y-30183677D01*
X26479873Y-30183678D01*
X26514858Y-30209096D01*
X26690164Y-30298418D01*
X26877294Y-30359221D01*
X27071618Y-30390000D01*
X27268382Y-30390000D01*
X27462705Y-30359221D01*
X27649835Y-30298418D01*
X27825143Y-30209095D01*
X27860125Y-30183678D01*
X27860126Y-30183678D01*
X27196448Y-29520000D01*
X27220028Y-29520000D01*
X27316675Y-29494104D01*
X27403325Y-29444076D01*
X27474076Y-29373325D01*
X27524104Y-29286675D01*
X27550000Y-29190028D01*
X27550000Y-29166448D01*
X28213678Y-29830126D01*
X28213678Y-29830125D01*
X28239097Y-29795141D01*
X28329515Y-29617685D01*
X28377489Y-29566888D01*
X28445310Y-29550093D01*
X28511445Y-29572630D01*
X28550485Y-29617684D01*
X28640905Y-29795145D01*
X28666319Y-29830125D01*
X28666320Y-29830125D01*
X29330000Y-29166445D01*
X29330000Y-29190028D01*
X29355896Y-29286675D01*
X29405924Y-29373325D01*
X29476675Y-29444076D01*
X29563325Y-29494104D01*
X29659972Y-29520000D01*
X29683553Y-29520000D01*
X29019873Y-30183677D01*
X29019873Y-30183678D01*
X29054858Y-30209096D01*
X29230164Y-30298418D01*
X29417294Y-30359221D01*
X29611618Y-30390000D01*
X29808382Y-30390000D01*
X30002705Y-30359221D01*
X30189835Y-30298418D01*
X30365143Y-30209095D01*
X30400125Y-30183678D01*
X30400126Y-30183678D01*
X29736448Y-29520000D01*
X29760028Y-29520000D01*
X29856675Y-29494104D01*
X29943325Y-29444076D01*
X30014076Y-29373325D01*
X30064104Y-29286675D01*
X30090000Y-29190028D01*
X30090000Y-29166448D01*
X30753678Y-29830126D01*
X30753678Y-29830125D01*
X30779095Y-29795143D01*
X30868418Y-29619835D01*
X30929221Y-29432705D01*
X30960000Y-29238382D01*
X30960000Y-29041617D01*
X30959994Y-29041577D01*
X40339500Y-29041577D01*
X40339500Y-29238422D01*
X40370290Y-29432826D01*
X40431117Y-29620029D01*
X40520341Y-29795141D01*
X40520476Y-29795405D01*
X40636172Y-29954646D01*
X40775354Y-30093828D01*
X40934595Y-30209524D01*
X41017455Y-30251743D01*
X41109970Y-30298882D01*
X41109972Y-30298882D01*
X41109975Y-30298884D01*
X41210317Y-30331487D01*
X41297173Y-30359709D01*
X41491578Y-30390500D01*
X41491583Y-30390500D01*
X41688422Y-30390500D01*
X41882826Y-30359709D01*
X41884328Y-30359221D01*
X42070025Y-30298884D01*
X42245405Y-30209524D01*
X42404646Y-30093828D01*
X42543828Y-29954646D01*
X42659524Y-29795405D01*
X42748884Y-29620025D01*
X42749515Y-29618787D01*
X42797489Y-29567990D01*
X42865310Y-29551195D01*
X42931445Y-29573732D01*
X42970485Y-29618787D01*
X43060474Y-29795403D01*
X43085702Y-29830125D01*
X43176172Y-29954646D01*
X43315354Y-30093828D01*
X43474595Y-30209524D01*
X43557455Y-30251743D01*
X43649970Y-30298882D01*
X43649972Y-30298882D01*
X43649975Y-30298884D01*
X43750317Y-30331487D01*
X43837173Y-30359709D01*
X44031578Y-30390500D01*
X44031583Y-30390500D01*
X44228422Y-30390500D01*
X44422826Y-30359709D01*
X44424328Y-30359221D01*
X44610025Y-30298884D01*
X44785405Y-30209524D01*
X44944646Y-30093828D01*
X45083828Y-29954646D01*
X45199524Y-29795405D01*
X45288884Y-29620025D01*
X45289515Y-29618787D01*
X45337489Y-29567990D01*
X45405310Y-29551195D01*
X45471445Y-29573732D01*
X45510485Y-29618787D01*
X45600474Y-29795403D01*
X45625702Y-29830125D01*
X45716172Y-29954646D01*
X45855354Y-30093828D01*
X46014595Y-30209524D01*
X46097455Y-30251743D01*
X46189970Y-30298882D01*
X46189972Y-30298882D01*
X46189975Y-30298884D01*
X46290317Y-30331487D01*
X46377173Y-30359709D01*
X46571578Y-30390500D01*
X46571583Y-30390500D01*
X46768422Y-30390500D01*
X46962826Y-30359709D01*
X46964328Y-30359221D01*
X47150025Y-30298884D01*
X47325405Y-30209524D01*
X47484646Y-30093828D01*
X47623828Y-29954646D01*
X47739524Y-29795405D01*
X47828884Y-29620025D01*
X47829515Y-29618787D01*
X47877489Y-29567990D01*
X47945310Y-29551195D01*
X48011445Y-29573732D01*
X48050485Y-29618787D01*
X48140474Y-29795403D01*
X48165702Y-29830125D01*
X48256172Y-29954646D01*
X48395354Y-30093828D01*
X48554595Y-30209524D01*
X48637455Y-30251743D01*
X48729970Y-30298882D01*
X48729972Y-30298882D01*
X48729975Y-30298884D01*
X48830317Y-30331487D01*
X48917173Y-30359709D01*
X49111578Y-30390500D01*
X49111583Y-30390500D01*
X49308422Y-30390500D01*
X49502826Y-30359709D01*
X49504328Y-30359221D01*
X49690025Y-30298884D01*
X49865405Y-30209524D01*
X50024646Y-30093828D01*
X50163828Y-29954646D01*
X50279524Y-29795405D01*
X50368884Y-29620025D01*
X50429709Y-29432826D01*
X50452857Y-29286675D01*
X50460500Y-29238422D01*
X50460500Y-29041577D01*
X50429709Y-28847173D01*
X50368882Y-28659970D01*
X50279659Y-28484860D01*
X50279524Y-28484595D01*
X50163828Y-28325354D01*
X50024646Y-28186172D01*
X49871380Y-28074817D01*
X49828715Y-28019486D01*
X49822736Y-27949873D01*
X49855342Y-27888078D01*
X49916181Y-27853721D01*
X49944258Y-27850499D01*
X51277872Y-27850499D01*
X51337483Y-27844091D01*
X51472331Y-27793796D01*
X51587546Y-27707546D01*
X51673796Y-27592331D01*
X51724091Y-27457483D01*
X51730500Y-27397873D01*
X51730499Y-25802128D01*
X51724091Y-25742517D01*
X51688157Y-25646174D01*
X51673797Y-25607671D01*
X51673793Y-25607664D01*
X51587547Y-25492455D01*
X51587544Y-25492452D01*
X51472335Y-25406206D01*
X51472328Y-25406202D01*
X51337482Y-25355908D01*
X51337483Y-25355908D01*
X51277883Y-25349501D01*
X51277881Y-25349500D01*
X51277873Y-25349500D01*
X51277864Y-25349500D01*
X49682129Y-25349500D01*
X49682123Y-25349501D01*
X49622516Y-25355908D01*
X49487671Y-25406202D01*
X49487664Y-25406206D01*
X49372455Y-25492452D01*
X49372452Y-25492455D01*
X49286206Y-25607664D01*
X49286202Y-25607671D01*
X49235908Y-25742517D01*
X49231303Y-25785354D01*
X49229501Y-25802123D01*
X49229500Y-25802135D01*
X49229500Y-25865732D01*
X49209815Y-25932771D01*
X49157011Y-25978526D01*
X49087853Y-25988470D01*
X49024297Y-25959445D01*
X49005182Y-25938618D01*
X48906020Y-25802135D01*
X48893828Y-25785354D01*
X48754646Y-25646172D01*
X48595405Y-25530476D01*
X48420029Y-25441117D01*
X48232826Y-25380290D01*
X48038422Y-25349500D01*
X48038417Y-25349500D01*
X47841583Y-25349500D01*
X47841578Y-25349500D01*
X47647173Y-25380290D01*
X47459970Y-25441117D01*
X47284594Y-25530476D01*
X47193741Y-25596485D01*
X47125354Y-25646172D01*
X47125352Y-25646174D01*
X47125351Y-25646174D01*
X46986174Y-25785351D01*
X46986174Y-25785352D01*
X46986172Y-25785354D01*
X46973980Y-25802135D01*
X46870476Y-25944594D01*
X46780485Y-26121213D01*
X46732511Y-26172009D01*
X46664690Y-26188804D01*
X46598555Y-26166267D01*
X46559515Y-26121213D01*
X46491879Y-25988470D01*
X46469524Y-25944595D01*
X46353828Y-25785354D01*
X46214646Y-25646172D01*
X46055405Y-25530476D01*
X45880029Y-25441117D01*
X45692826Y-25380290D01*
X45498422Y-25349500D01*
X45498417Y-25349500D01*
X45301583Y-25349500D01*
X45301578Y-25349500D01*
X45107173Y-25380290D01*
X44919970Y-25441117D01*
X44744594Y-25530476D01*
X44653741Y-25596485D01*
X44585354Y-25646172D01*
X44585352Y-25646174D01*
X44585351Y-25646174D01*
X44446174Y-25785351D01*
X44446174Y-25785352D01*
X44446172Y-25785354D01*
X44433980Y-25802135D01*
X44330476Y-25944594D01*
X44240485Y-26121213D01*
X44192511Y-26172009D01*
X44124690Y-26188804D01*
X44058555Y-26166267D01*
X44019515Y-26121213D01*
X43951879Y-25988470D01*
X43929524Y-25944595D01*
X43813828Y-25785354D01*
X43674646Y-25646172D01*
X43515405Y-25530476D01*
X43340029Y-25441117D01*
X43152826Y-25380290D01*
X42958422Y-25349500D01*
X42958417Y-25349500D01*
X42761583Y-25349500D01*
X42761578Y-25349500D01*
X42567173Y-25380290D01*
X42379970Y-25441117D01*
X42204594Y-25530476D01*
X42113741Y-25596485D01*
X42045354Y-25646172D01*
X42045352Y-25646174D01*
X42045351Y-25646174D01*
X41906174Y-25785351D01*
X41906174Y-25785352D01*
X41906172Y-25785354D01*
X41893980Y-25802135D01*
X41790476Y-25944594D01*
X41701117Y-26119970D01*
X41640290Y-26307173D01*
X41609500Y-26501577D01*
X41609500Y-26698422D01*
X41640290Y-26892826D01*
X41701117Y-27080029D01*
X41771781Y-27218714D01*
X41790476Y-27255405D01*
X41906172Y-27414646D01*
X42045354Y-27553828D01*
X42204595Y-27669524D01*
X42248097Y-27691689D01*
X42379970Y-27758882D01*
X42379972Y-27758882D01*
X42379975Y-27758884D01*
X42480317Y-27791487D01*
X42567173Y-27819709D01*
X42761578Y-27850500D01*
X42761583Y-27850500D01*
X42958422Y-27850500D01*
X43152826Y-27819709D01*
X43232574Y-27793797D01*
X43340025Y-27758884D01*
X43515405Y-27669524D01*
X43674646Y-27553828D01*
X43813828Y-27414646D01*
X43929524Y-27255405D01*
X44018884Y-27080025D01*
X44019515Y-27078787D01*
X44067489Y-27027990D01*
X44135310Y-27011195D01*
X44201445Y-27033732D01*
X44240485Y-27078787D01*
X44330474Y-27255403D01*
X44334817Y-27261380D01*
X44446172Y-27414646D01*
X44585354Y-27553828D01*
X44744595Y-27669524D01*
X44788097Y-27691689D01*
X44919970Y-27758882D01*
X44919972Y-27758882D01*
X44919975Y-27758884D01*
X45020317Y-27791487D01*
X45107173Y-27819709D01*
X45301578Y-27850500D01*
X45301583Y-27850500D01*
X45498422Y-27850500D01*
X45692826Y-27819709D01*
X45772574Y-27793797D01*
X45880025Y-27758884D01*
X46055405Y-27669524D01*
X46214646Y-27553828D01*
X46353828Y-27414646D01*
X46469524Y-27255405D01*
X46558884Y-27080025D01*
X46559515Y-27078787D01*
X46607489Y-27027990D01*
X46675310Y-27011195D01*
X46741445Y-27033732D01*
X46780485Y-27078787D01*
X46870474Y-27255403D01*
X46874817Y-27261380D01*
X46986172Y-27414646D01*
X47125354Y-27553828D01*
X47284595Y-27669524D01*
X47328097Y-27691689D01*
X47459970Y-27758882D01*
X47459972Y-27758882D01*
X47459975Y-27758884D01*
X47560317Y-27791487D01*
X47647173Y-27819709D01*
X47841578Y-27850500D01*
X47841583Y-27850500D01*
X48038422Y-27850500D01*
X48232826Y-27819709D01*
X48312574Y-27793797D01*
X48420025Y-27758884D01*
X48595405Y-27669524D01*
X48754646Y-27553828D01*
X48893828Y-27414646D01*
X49005184Y-27261378D01*
X49060512Y-27218714D01*
X49130125Y-27212735D01*
X49191920Y-27245341D01*
X49226277Y-27306179D01*
X49229500Y-27334263D01*
X49229500Y-27397869D01*
X49229501Y-27397876D01*
X49235908Y-27457483D01*
X49286202Y-27592328D01*
X49286204Y-27592331D01*
X49360209Y-27691189D01*
X49384627Y-27756653D01*
X49369776Y-27824926D01*
X49320371Y-27874332D01*
X49260943Y-27889500D01*
X49111578Y-27889500D01*
X48917173Y-27920290D01*
X48729970Y-27981117D01*
X48554594Y-28070476D01*
X48463741Y-28136485D01*
X48395354Y-28186172D01*
X48395352Y-28186174D01*
X48395351Y-28186174D01*
X48256174Y-28325351D01*
X48256174Y-28325352D01*
X48256172Y-28325354D01*
X48206485Y-28393741D01*
X48140476Y-28484594D01*
X48050485Y-28661213D01*
X48002511Y-28712009D01*
X47934690Y-28728804D01*
X47868555Y-28706267D01*
X47829515Y-28661213D01*
X47739659Y-28484860D01*
X47739524Y-28484595D01*
X47623828Y-28325354D01*
X47484646Y-28186172D01*
X47325405Y-28070476D01*
X47150029Y-27981117D01*
X46962826Y-27920290D01*
X46768422Y-27889500D01*
X46768417Y-27889500D01*
X46571583Y-27889500D01*
X46571578Y-27889500D01*
X46377173Y-27920290D01*
X46189970Y-27981117D01*
X46014594Y-28070476D01*
X45923741Y-28136485D01*
X45855354Y-28186172D01*
X45855352Y-28186174D01*
X45855351Y-28186174D01*
X45716174Y-28325351D01*
X45716174Y-28325352D01*
X45716172Y-28325354D01*
X45666485Y-28393741D01*
X45600476Y-28484594D01*
X45510485Y-28661213D01*
X45462511Y-28712009D01*
X45394690Y-28728804D01*
X45328555Y-28706267D01*
X45289515Y-28661213D01*
X45199659Y-28484860D01*
X45199524Y-28484595D01*
X45083828Y-28325354D01*
X44944646Y-28186172D01*
X44785405Y-28070476D01*
X44610029Y-27981117D01*
X44422826Y-27920290D01*
X44228422Y-27889500D01*
X44228417Y-27889500D01*
X44031583Y-27889500D01*
X44031578Y-27889500D01*
X43837173Y-27920290D01*
X43649970Y-27981117D01*
X43474594Y-28070476D01*
X43383741Y-28136485D01*
X43315354Y-28186172D01*
X43315352Y-28186174D01*
X43315351Y-28186174D01*
X43176174Y-28325351D01*
X43176174Y-28325352D01*
X43176172Y-28325354D01*
X43126485Y-28393741D01*
X43060476Y-28484594D01*
X42970485Y-28661213D01*
X42922511Y-28712009D01*
X42854690Y-28728804D01*
X42788555Y-28706267D01*
X42749515Y-28661213D01*
X42659659Y-28484860D01*
X42659524Y-28484595D01*
X42543828Y-28325354D01*
X42404646Y-28186172D01*
X42245405Y-28070476D01*
X42070029Y-27981117D01*
X41882826Y-27920290D01*
X41688422Y-27889500D01*
X41688417Y-27889500D01*
X41491583Y-27889500D01*
X41491578Y-27889500D01*
X41297173Y-27920290D01*
X41109970Y-27981117D01*
X40934594Y-28070476D01*
X40843741Y-28136485D01*
X40775354Y-28186172D01*
X40775352Y-28186174D01*
X40775351Y-28186174D01*
X40636174Y-28325351D01*
X40636174Y-28325352D01*
X40636172Y-28325354D01*
X40586485Y-28393741D01*
X40520476Y-28484594D01*
X40431117Y-28659970D01*
X40370290Y-28847173D01*
X40339500Y-29041577D01*
X30959994Y-29041577D01*
X30929221Y-28847294D01*
X30868418Y-28660164D01*
X30779096Y-28484858D01*
X30753678Y-28449873D01*
X30090000Y-29113551D01*
X30090000Y-29089972D01*
X30064104Y-28993325D01*
X30014076Y-28906675D01*
X29943325Y-28835924D01*
X29856675Y-28785896D01*
X29760028Y-28760000D01*
X29736447Y-28760000D01*
X30400125Y-28096320D01*
X30400125Y-28096319D01*
X30370531Y-28074818D01*
X30327864Y-28019488D01*
X30321885Y-27949875D01*
X30354490Y-27888080D01*
X30415328Y-27853722D01*
X30443407Y-27850499D01*
X31777872Y-27850499D01*
X31837483Y-27844091D01*
X31972331Y-27793796D01*
X32087546Y-27707546D01*
X32173796Y-27592331D01*
X32224091Y-27457483D01*
X32230500Y-27397873D01*
X32230499Y-25802128D01*
X32224091Y-25742517D01*
X32188157Y-25646174D01*
X32173797Y-25607671D01*
X32173793Y-25607664D01*
X32087547Y-25492455D01*
X32087544Y-25492452D01*
X31972335Y-25406206D01*
X31972328Y-25406202D01*
X31837482Y-25355908D01*
X31837483Y-25355908D01*
X31777883Y-25349501D01*
X31777881Y-25349500D01*
X31777873Y-25349500D01*
X31777864Y-25349500D01*
X30182129Y-25349500D01*
X30182123Y-25349501D01*
X30122516Y-25355908D01*
X29987671Y-25406202D01*
X29987664Y-25406206D01*
X29872455Y-25492452D01*
X29872452Y-25492455D01*
X29786206Y-25607664D01*
X29786202Y-25607671D01*
X29735908Y-25742517D01*
X29731303Y-25785354D01*
X29729501Y-25802123D01*
X29729500Y-25802135D01*
X29729500Y-25865732D01*
X29709815Y-25932771D01*
X29657011Y-25978526D01*
X29587853Y-25988470D01*
X29524297Y-25959445D01*
X29505182Y-25938618D01*
X29406020Y-25802135D01*
X29393828Y-25785354D01*
X29254646Y-25646172D01*
X29095405Y-25530476D01*
X28920029Y-25441117D01*
X28732826Y-25380290D01*
X28538422Y-25349500D01*
X28538417Y-25349500D01*
X28341583Y-25349500D01*
X28341578Y-25349500D01*
X28147173Y-25380290D01*
X27959970Y-25441117D01*
X27784594Y-25530476D01*
X27693741Y-25596485D01*
X27625354Y-25646172D01*
X27625352Y-25646174D01*
X27625351Y-25646174D01*
X27486174Y-25785351D01*
X27486174Y-25785352D01*
X27486172Y-25785354D01*
X27473980Y-25802135D01*
X27370476Y-25944594D01*
X27280485Y-26121213D01*
X27232511Y-26172009D01*
X27164690Y-26188804D01*
X27098555Y-26166267D01*
X27059515Y-26121213D01*
X26991879Y-25988470D01*
X26969524Y-25944595D01*
X26853828Y-25785354D01*
X26714646Y-25646172D01*
X26555405Y-25530476D01*
X26380029Y-25441117D01*
X26192826Y-25380290D01*
X25998422Y-25349500D01*
X25998417Y-25349500D01*
X25801583Y-25349500D01*
X25801578Y-25349500D01*
X25607173Y-25380290D01*
X25419970Y-25441117D01*
X25244594Y-25530476D01*
X25153741Y-25596485D01*
X25085354Y-25646172D01*
X25085352Y-25646174D01*
X25085351Y-25646174D01*
X24946174Y-25785351D01*
X24946174Y-25785352D01*
X24946172Y-25785354D01*
X24933980Y-25802135D01*
X24830476Y-25944594D01*
X24740485Y-26121213D01*
X24692511Y-26172009D01*
X24624690Y-26188804D01*
X24558555Y-26166267D01*
X24519515Y-26121213D01*
X24451879Y-25988470D01*
X24429524Y-25944595D01*
X24313828Y-25785354D01*
X24174646Y-25646172D01*
X24015405Y-25530476D01*
X23840029Y-25441117D01*
X23652826Y-25380290D01*
X23458422Y-25349500D01*
X23458417Y-25349500D01*
X23261583Y-25349500D01*
X23261578Y-25349500D01*
X23067173Y-25380290D01*
X22879970Y-25441117D01*
X22704594Y-25530476D01*
X22613741Y-25596485D01*
X22545354Y-25646172D01*
X22545352Y-25646174D01*
X22545351Y-25646174D01*
X22406174Y-25785351D01*
X22406174Y-25785352D01*
X22406172Y-25785354D01*
X22393980Y-25802135D01*
X22290476Y-25944594D01*
X22201117Y-26119970D01*
X22140290Y-26307173D01*
X22109500Y-26501577D01*
X22109500Y-26698422D01*
X22140290Y-26892826D01*
X22201117Y-27080029D01*
X22271781Y-27218714D01*
X22290476Y-27255405D01*
X22406172Y-27414646D01*
X22545354Y-27553828D01*
X22704595Y-27669524D01*
X22748097Y-27691689D01*
X22879970Y-27758882D01*
X22879972Y-27758882D01*
X22879975Y-27758884D01*
X22980317Y-27791487D01*
X23067173Y-27819709D01*
X23261578Y-27850500D01*
X23261583Y-27850500D01*
X23458422Y-27850500D01*
X23652826Y-27819709D01*
X23732574Y-27793797D01*
X23840025Y-27758884D01*
X24015405Y-27669524D01*
X24174646Y-27553828D01*
X24313828Y-27414646D01*
X24429524Y-27255405D01*
X24518884Y-27080025D01*
X24519515Y-27078787D01*
X24567489Y-27027990D01*
X24635310Y-27011195D01*
X24701445Y-27033732D01*
X24740485Y-27078787D01*
X24830474Y-27255403D01*
X24834817Y-27261380D01*
X24946172Y-27414646D01*
X25085354Y-27553828D01*
X25244595Y-27669524D01*
X25288097Y-27691689D01*
X25419970Y-27758882D01*
X25419972Y-27758882D01*
X25419975Y-27758884D01*
X25520317Y-27791487D01*
X25607173Y-27819709D01*
X25801578Y-27850500D01*
X25801583Y-27850500D01*
X25998422Y-27850500D01*
X26192826Y-27819709D01*
X26272574Y-27793797D01*
X26380025Y-27758884D01*
X26555405Y-27669524D01*
X26714646Y-27553828D01*
X26853828Y-27414646D01*
X26969524Y-27255405D01*
X27058884Y-27080025D01*
X27059515Y-27078787D01*
X27107489Y-27027990D01*
X27175310Y-27011195D01*
X27241445Y-27033732D01*
X27280485Y-27078787D01*
X27370474Y-27255403D01*
X27374817Y-27261380D01*
X27486172Y-27414646D01*
X27625354Y-27553828D01*
X27784595Y-27669524D01*
X27828097Y-27691689D01*
X27959970Y-27758882D01*
X27959972Y-27758882D01*
X27959975Y-27758884D01*
X28060317Y-27791487D01*
X28147173Y-27819709D01*
X28341578Y-27850500D01*
X28341583Y-27850500D01*
X28538422Y-27850500D01*
X28732826Y-27819709D01*
X28812574Y-27793797D01*
X28920025Y-27758884D01*
X29095405Y-27669524D01*
X29254646Y-27553828D01*
X29393828Y-27414646D01*
X29505184Y-27261378D01*
X29560512Y-27218714D01*
X29630125Y-27212735D01*
X29691920Y-27245341D01*
X29726277Y-27306179D01*
X29729500Y-27334263D01*
X29729500Y-27397869D01*
X29729501Y-27397876D01*
X29735908Y-27457483D01*
X29786202Y-27592328D01*
X29786206Y-27592335D01*
X29860583Y-27691689D01*
X29885001Y-27757153D01*
X29870150Y-27825426D01*
X29820745Y-27874832D01*
X29761317Y-27890000D01*
X29611618Y-27890000D01*
X29417294Y-27920778D01*
X29230161Y-27981582D01*
X29054863Y-28070899D01*
X29054859Y-28070902D01*
X29019873Y-28096320D01*
X29019872Y-28096320D01*
X29683554Y-28760000D01*
X29659972Y-28760000D01*
X29563325Y-28785896D01*
X29476675Y-28835924D01*
X29405924Y-28906675D01*
X29355896Y-28993325D01*
X29330000Y-29089972D01*
X29330000Y-29113552D01*
X28666320Y-28449872D01*
X28666320Y-28449873D01*
X28640902Y-28484859D01*
X28550484Y-28662315D01*
X28502509Y-28713111D01*
X28434688Y-28729906D01*
X28368553Y-28707369D01*
X28329514Y-28662314D01*
X28239097Y-28484860D01*
X28213678Y-28449873D01*
X27550000Y-29113551D01*
X27550000Y-29089972D01*
X27524104Y-28993325D01*
X27474076Y-28906675D01*
X27403325Y-28835924D01*
X27316675Y-28785896D01*
X27220028Y-28760000D01*
X27196447Y-28760000D01*
X27860125Y-28096320D01*
X27860125Y-28096319D01*
X27825145Y-28070905D01*
X27649835Y-27981581D01*
X27462705Y-27920778D01*
X27268382Y-27890000D01*
X27071618Y-27890000D01*
X26877294Y-27920778D01*
X26690161Y-27981582D01*
X26514863Y-28070899D01*
X26514859Y-28070902D01*
X26479873Y-28096320D01*
X26479872Y-28096320D01*
X27143554Y-28760000D01*
X27119972Y-28760000D01*
X27023325Y-28785896D01*
X26936675Y-28835924D01*
X26865924Y-28906675D01*
X26815896Y-28993325D01*
X26790000Y-29089972D01*
X26790000Y-29113552D01*
X26126320Y-28449872D01*
X26126320Y-28449873D01*
X26100902Y-28484859D01*
X26010484Y-28662315D01*
X25962509Y-28713111D01*
X25894688Y-28729906D01*
X25828553Y-28707369D01*
X25789514Y-28662314D01*
X25699097Y-28484860D01*
X25673678Y-28449873D01*
X25010000Y-29113551D01*
X25010000Y-29089972D01*
X24984104Y-28993325D01*
X24934076Y-28906675D01*
X24863325Y-28835924D01*
X24776675Y-28785896D01*
X24680028Y-28760000D01*
X24656447Y-28760000D01*
X25320125Y-28096320D01*
X25320125Y-28096319D01*
X25285145Y-28070905D01*
X25109835Y-27981581D01*
X24922705Y-27920778D01*
X24728382Y-27890000D01*
X24531618Y-27890000D01*
X24337294Y-27920778D01*
X24150161Y-27981582D01*
X23974863Y-28070899D01*
X23974859Y-28070902D01*
X23939873Y-28096320D01*
X23939872Y-28096320D01*
X24603554Y-28760000D01*
X24579972Y-28760000D01*
X24483325Y-28785896D01*
X24396675Y-28835924D01*
X24325924Y-28906675D01*
X24275896Y-28993325D01*
X24250000Y-29089972D01*
X24250000Y-29113552D01*
X23586320Y-28449872D01*
X23586320Y-28449873D01*
X23560902Y-28484859D01*
X23470765Y-28661764D01*
X23422790Y-28712560D01*
X23354969Y-28729355D01*
X23288835Y-28706818D01*
X23249795Y-28661763D01*
X23159525Y-28484596D01*
X23134296Y-28449872D01*
X23043828Y-28325354D01*
X22904646Y-28186172D01*
X22745405Y-28070476D01*
X22570029Y-27981117D01*
X22382826Y-27920290D01*
X22188422Y-27889500D01*
X22188417Y-27889500D01*
X21991583Y-27889500D01*
X21991578Y-27889500D01*
X21797173Y-27920290D01*
X21609970Y-27981117D01*
X21434594Y-28070476D01*
X21343741Y-28136485D01*
X21275354Y-28186172D01*
X21275352Y-28186174D01*
X21275351Y-28186174D01*
X21136174Y-28325351D01*
X21136174Y-28325352D01*
X21136172Y-28325354D01*
X21086485Y-28393741D01*
X21020476Y-28484594D01*
X20931117Y-28659970D01*
X20870290Y-28847173D01*
X20839500Y-29041577D01*
X12500500Y-29041577D01*
X12500500Y-20128711D01*
X18969500Y-20128711D01*
X18969500Y-20371288D01*
X19001161Y-20611785D01*
X19063947Y-20846104D01*
X19140229Y-21030264D01*
X19156776Y-21070212D01*
X19278064Y-21280289D01*
X19278066Y-21280292D01*
X19278067Y-21280293D01*
X19425733Y-21472736D01*
X19425739Y-21472743D01*
X19597256Y-21644260D01*
X19597262Y-21644265D01*
X19789711Y-21791936D01*
X19999788Y-21913224D01*
X20223900Y-22006054D01*
X20458211Y-22068838D01*
X20638586Y-22092584D01*
X20698711Y-22100500D01*
X20698712Y-22100500D01*
X20941289Y-22100500D01*
X20989388Y-22094167D01*
X21181789Y-22068838D01*
X21416100Y-22006054D01*
X21640212Y-21913224D01*
X21850289Y-21791936D01*
X22042738Y-21644265D01*
X22214265Y-21472738D01*
X22361936Y-21280289D01*
X22483224Y-21070212D01*
X22576054Y-20846100D01*
X22638838Y-20611789D01*
X22670500Y-20371288D01*
X22670500Y-20128712D01*
X22670500Y-20128711D01*
X30399500Y-20128711D01*
X30399500Y-20371288D01*
X30431161Y-20611785D01*
X30493947Y-20846104D01*
X30570229Y-21030264D01*
X30586776Y-21070212D01*
X30708064Y-21280289D01*
X30708066Y-21280292D01*
X30708067Y-21280293D01*
X30855733Y-21472736D01*
X30855739Y-21472743D01*
X31027256Y-21644260D01*
X31027262Y-21644265D01*
X31219711Y-21791936D01*
X31429788Y-21913224D01*
X31653900Y-22006054D01*
X31888211Y-22068838D01*
X32068586Y-22092584D01*
X32128711Y-22100500D01*
X32128712Y-22100500D01*
X32371289Y-22100500D01*
X32419388Y-22094167D01*
X32611789Y-22068838D01*
X32846100Y-22006054D01*
X33070212Y-21913224D01*
X33280289Y-21791936D01*
X33472738Y-21644265D01*
X33644265Y-21472738D01*
X33791936Y-21280289D01*
X33913224Y-21070212D01*
X34006054Y-20846100D01*
X34068838Y-20611789D01*
X34100500Y-20371288D01*
X34100500Y-20128712D01*
X34100500Y-20128711D01*
X38469500Y-20128711D01*
X38469500Y-20371288D01*
X38501161Y-20611785D01*
X38563947Y-20846104D01*
X38640229Y-21030264D01*
X38656776Y-21070212D01*
X38778064Y-21280289D01*
X38778066Y-21280292D01*
X38778067Y-21280293D01*
X38925733Y-21472736D01*
X38925739Y-21472743D01*
X39097256Y-21644260D01*
X39097262Y-21644265D01*
X39289711Y-21791936D01*
X39499788Y-21913224D01*
X39723900Y-22006054D01*
X39958211Y-22068838D01*
X40138586Y-22092584D01*
X40198711Y-22100500D01*
X40198712Y-22100500D01*
X40441289Y-22100500D01*
X40489388Y-22094167D01*
X40681789Y-22068838D01*
X40916100Y-22006054D01*
X41140212Y-21913224D01*
X41350289Y-21791936D01*
X41542738Y-21644265D01*
X41714265Y-21472738D01*
X41861936Y-21280289D01*
X41983224Y-21070212D01*
X42076054Y-20846100D01*
X42138838Y-20611789D01*
X42170500Y-20371288D01*
X42170500Y-20128712D01*
X42170500Y-20128711D01*
X49899500Y-20128711D01*
X49899500Y-20371288D01*
X49931161Y-20611785D01*
X49993947Y-20846104D01*
X50070229Y-21030264D01*
X50086776Y-21070212D01*
X50208064Y-21280289D01*
X50208066Y-21280292D01*
X50208067Y-21280293D01*
X50355733Y-21472736D01*
X50355739Y-21472743D01*
X50527256Y-21644260D01*
X50527262Y-21644265D01*
X50719711Y-21791936D01*
X50929788Y-21913224D01*
X51153900Y-22006054D01*
X51388211Y-22068838D01*
X51568586Y-22092584D01*
X51628711Y-22100500D01*
X51628712Y-22100500D01*
X51871289Y-22100500D01*
X51919388Y-22094167D01*
X52111789Y-22068838D01*
X52346100Y-22006054D01*
X52570212Y-21913224D01*
X52780289Y-21791936D01*
X52872535Y-21721153D01*
X53999500Y-21721153D01*
X53999500Y-21878846D01*
X54030261Y-22033489D01*
X54030264Y-22033501D01*
X54090602Y-22179172D01*
X54090609Y-22179185D01*
X54178210Y-22310288D01*
X54178213Y-22310292D01*
X54289707Y-22421786D01*
X54289711Y-22421789D01*
X54420814Y-22509390D01*
X54420827Y-22509397D01*
X54566498Y-22569735D01*
X54566503Y-22569737D01*
X54721153Y-22600499D01*
X54721156Y-22600500D01*
X54721158Y-22600500D01*
X54878844Y-22600500D01*
X54878845Y-22600499D01*
X55033497Y-22569737D01*
X55179179Y-22509394D01*
X55310289Y-22421789D01*
X55421789Y-22310289D01*
X55509394Y-22179179D01*
X55569737Y-22033497D01*
X55600500Y-21878842D01*
X55600500Y-21721158D01*
X55600500Y-21721155D01*
X55600499Y-21721153D01*
X55569738Y-21566510D01*
X55569737Y-21566503D01*
X55530898Y-21472736D01*
X55509397Y-21420827D01*
X55509390Y-21420814D01*
X55421789Y-21289711D01*
X55421786Y-21289707D01*
X55310292Y-21178213D01*
X55310288Y-21178210D01*
X55179185Y-21090609D01*
X55179172Y-21090602D01*
X55033501Y-21030264D01*
X55033489Y-21030261D01*
X54878845Y-20999500D01*
X54878842Y-20999500D01*
X54721158Y-20999500D01*
X54721155Y-20999500D01*
X54566510Y-21030261D01*
X54566498Y-21030264D01*
X54420827Y-21090602D01*
X54420814Y-21090609D01*
X54289711Y-21178210D01*
X54289707Y-21178213D01*
X54178213Y-21289707D01*
X54178210Y-21289711D01*
X54090609Y-21420814D01*
X54090602Y-21420827D01*
X54030264Y-21566498D01*
X54030261Y-21566510D01*
X53999500Y-21721153D01*
X52872535Y-21721153D01*
X52972738Y-21644265D01*
X52972743Y-21644260D01*
X52989619Y-21627385D01*
X53144260Y-21472743D01*
X53144265Y-21472738D01*
X53291936Y-21280289D01*
X53413224Y-21070212D01*
X53506054Y-20846100D01*
X53568838Y-20611789D01*
X53600500Y-20371288D01*
X53600500Y-20128712D01*
X53568838Y-19888211D01*
X53506054Y-19653900D01*
X53413224Y-19429788D01*
X53291936Y-19219711D01*
X53144265Y-19027262D01*
X53144260Y-19027256D01*
X52972743Y-18855739D01*
X52972736Y-18855733D01*
X52780293Y-18708067D01*
X52780292Y-18708066D01*
X52780289Y-18708064D01*
X52570212Y-18586776D01*
X52570205Y-18586773D01*
X52346104Y-18493947D01*
X52111785Y-18431161D01*
X51871289Y-18399500D01*
X51871288Y-18399500D01*
X51628712Y-18399500D01*
X51628711Y-18399500D01*
X51388214Y-18431161D01*
X51153895Y-18493947D01*
X50929794Y-18586773D01*
X50929785Y-18586777D01*
X50719706Y-18708067D01*
X50527263Y-18855733D01*
X50527256Y-18855739D01*
X50355739Y-19027256D01*
X50355733Y-19027263D01*
X50208067Y-19219706D01*
X50086777Y-19429785D01*
X50086773Y-19429794D01*
X49993947Y-19653895D01*
X49931161Y-19888214D01*
X49899500Y-20128711D01*
X42170500Y-20128711D01*
X42138838Y-19888211D01*
X42076054Y-19653900D01*
X41983224Y-19429788D01*
X41861936Y-19219711D01*
X41714265Y-19027262D01*
X41714260Y-19027256D01*
X41542743Y-18855739D01*
X41542736Y-18855733D01*
X41350293Y-18708067D01*
X41350292Y-18708066D01*
X41350289Y-18708064D01*
X41140212Y-18586776D01*
X41140205Y-18586773D01*
X40916104Y-18493947D01*
X40681785Y-18431161D01*
X40441289Y-18399500D01*
X40441288Y-18399500D01*
X40198712Y-18399500D01*
X40198711Y-18399500D01*
X39958214Y-18431161D01*
X39723895Y-18493947D01*
X39499794Y-18586773D01*
X39499785Y-18586777D01*
X39289706Y-18708067D01*
X39097263Y-18855733D01*
X39097256Y-18855739D01*
X38925739Y-19027256D01*
X38925733Y-19027263D01*
X38778067Y-19219706D01*
X38656777Y-19429785D01*
X38656773Y-19429794D01*
X38563947Y-19653895D01*
X38501161Y-19888214D01*
X38469500Y-20128711D01*
X34100500Y-20128711D01*
X34068838Y-19888211D01*
X34006054Y-19653900D01*
X33913224Y-19429788D01*
X33791936Y-19219711D01*
X33644265Y-19027262D01*
X33644260Y-19027256D01*
X33472743Y-18855739D01*
X33472736Y-18855733D01*
X33280293Y-18708067D01*
X33280292Y-18708066D01*
X33280289Y-18708064D01*
X33070212Y-18586776D01*
X33070205Y-18586773D01*
X32846104Y-18493947D01*
X32611785Y-18431161D01*
X32371289Y-18399500D01*
X32371288Y-18399500D01*
X32128712Y-18399500D01*
X32128711Y-18399500D01*
X31888214Y-18431161D01*
X31653895Y-18493947D01*
X31429794Y-18586773D01*
X31429785Y-18586777D01*
X31219706Y-18708067D01*
X31027263Y-18855733D01*
X31027256Y-18855739D01*
X30855739Y-19027256D01*
X30855733Y-19027263D01*
X30708067Y-19219706D01*
X30586777Y-19429785D01*
X30586773Y-19429794D01*
X30493947Y-19653895D01*
X30431161Y-19888214D01*
X30399500Y-20128711D01*
X22670500Y-20128711D01*
X22638838Y-19888211D01*
X22576054Y-19653900D01*
X22483224Y-19429788D01*
X22361936Y-19219711D01*
X22214265Y-19027262D01*
X22214260Y-19027256D01*
X22042743Y-18855739D01*
X22042736Y-18855733D01*
X21850293Y-18708067D01*
X21850292Y-18708066D01*
X21850289Y-18708064D01*
X21640212Y-18586776D01*
X21640205Y-18586773D01*
X21416104Y-18493947D01*
X21181785Y-18431161D01*
X20941289Y-18399500D01*
X20941288Y-18399500D01*
X20698712Y-18399500D01*
X20698711Y-18399500D01*
X20458214Y-18431161D01*
X20223895Y-18493947D01*
X19999794Y-18586773D01*
X19999785Y-18586777D01*
X19789706Y-18708067D01*
X19597263Y-18855733D01*
X19597256Y-18855739D01*
X19425739Y-19027256D01*
X19425733Y-19027263D01*
X19278067Y-19219706D01*
X19156777Y-19429785D01*
X19156773Y-19429794D01*
X19063947Y-19653895D01*
X19001161Y-19888214D01*
X18969500Y-20128711D01*
X12500500Y-20128711D01*
X12500500Y-14893713D01*
X13649500Y-14893713D01*
X13649500Y-15106286D01*
X13682753Y-15316239D01*
X13748444Y-15518414D01*
X13844951Y-15707820D01*
X13969890Y-15879786D01*
X14120213Y-16030109D01*
X14292179Y-16155048D01*
X14292181Y-16155049D01*
X14292184Y-16155051D01*
X14481588Y-16251557D01*
X14683757Y-16317246D01*
X14893713Y-16350500D01*
X14893714Y-16350500D01*
X15106286Y-16350500D01*
X15106287Y-16350500D01*
X15316243Y-16317246D01*
X15518412Y-16251557D01*
X15707816Y-16155051D01*
X15729789Y-16139086D01*
X15879786Y-16030109D01*
X15879788Y-16030106D01*
X15879792Y-16030104D01*
X16030104Y-15879792D01*
X16030106Y-15879788D01*
X16030109Y-15879786D01*
X16155048Y-15707820D01*
X16155047Y-15707820D01*
X16155051Y-15707816D01*
X16251557Y-15518412D01*
X16317246Y-15316243D01*
X16350500Y-15106287D01*
X16350500Y-14893713D01*
X56149500Y-14893713D01*
X56149500Y-15106286D01*
X56182753Y-15316239D01*
X56248444Y-15518414D01*
X56344951Y-15707820D01*
X56469890Y-15879786D01*
X56620213Y-16030109D01*
X56792179Y-16155048D01*
X56792181Y-16155049D01*
X56792184Y-16155051D01*
X56981588Y-16251557D01*
X57183757Y-16317246D01*
X57393713Y-16350500D01*
X57393714Y-16350500D01*
X57606286Y-16350500D01*
X57606287Y-16350500D01*
X57816243Y-16317246D01*
X58018412Y-16251557D01*
X58207816Y-16155051D01*
X58229789Y-16139086D01*
X58379786Y-16030109D01*
X58379788Y-16030106D01*
X58379792Y-16030104D01*
X58530104Y-15879792D01*
X58530106Y-15879788D01*
X58530109Y-15879786D01*
X58655048Y-15707820D01*
X58655047Y-15707820D01*
X58655051Y-15707816D01*
X58751557Y-15518412D01*
X58817246Y-15316243D01*
X58850500Y-15106287D01*
X58850500Y-14893713D01*
X58817246Y-14683757D01*
X58751557Y-14481588D01*
X58655051Y-14292184D01*
X58655049Y-14292181D01*
X58655048Y-14292179D01*
X58530109Y-14120213D01*
X58379786Y-13969890D01*
X58207820Y-13844951D01*
X58018414Y-13748444D01*
X58018413Y-13748443D01*
X58018412Y-13748443D01*
X57816243Y-13682754D01*
X57816241Y-13682753D01*
X57816240Y-13682753D01*
X57654957Y-13657208D01*
X57606287Y-13649500D01*
X57393713Y-13649500D01*
X57345042Y-13657208D01*
X57183760Y-13682753D01*
X56981585Y-13748444D01*
X56792179Y-13844951D01*
X56620213Y-13969890D01*
X56469890Y-14120213D01*
X56344951Y-14292179D01*
X56248444Y-14481585D01*
X56182753Y-14683760D01*
X56149500Y-14893713D01*
X16350500Y-14893713D01*
X16317246Y-14683757D01*
X16251557Y-14481588D01*
X16155051Y-14292184D01*
X16155049Y-14292181D01*
X16155048Y-14292179D01*
X16030109Y-14120213D01*
X15879786Y-13969890D01*
X15707820Y-13844951D01*
X15518414Y-13748444D01*
X15518413Y-13748443D01*
X15518412Y-13748443D01*
X15316243Y-13682754D01*
X15316241Y-13682753D01*
X15316240Y-13682753D01*
X15154957Y-13657208D01*
X15106287Y-13649500D01*
X14893713Y-13649500D01*
X14845042Y-13657208D01*
X14683760Y-13682753D01*
X14481585Y-13748444D01*
X14292179Y-13844951D01*
X14120213Y-13969890D01*
X13969890Y-14120213D01*
X13844951Y-14292179D01*
X13748444Y-14481585D01*
X13682753Y-14683760D01*
X13649500Y-14893713D01*
X12500500Y-14893713D01*
X12500500Y-12624500D01*
X12520185Y-12557461D01*
X12572989Y-12511706D01*
X12624500Y-12500500D01*
X59875500Y-12500500D01*
X59942539Y-12520185D01*
G37*
%TD.AperFunction*%
%TD*%
M02*
