%TF.GenerationSoftware,KiCad,Pcbnew,9.0.7*%
%TF.CreationDate,2026-01-18T11:35:40-05:00*%
%TF.ProjectId,digirig_icom,64696769-7269-4675-9f69-636f6d2e6b69,rev?*%
%TF.SameCoordinates,Original*%
%TF.FileFunction,Soldermask,Top*%
%TF.FilePolarity,Negative*%
%FSLAX46Y46*%
G04 Gerber Fmt 4.6, Leading zero omitted, Abs format (unit mm)*
G04 Created by KiCad (PCBNEW 9.0.7) date 2026-01-18 11:35:40*
%MOMM*%
%LPD*%
G01*
G04 APERTURE LIST*
G04 Aperture macros list*
%AMRoundRect*
0 Rectangle with rounded corners*
0 $1 Rounding radius*
0 $2 $3 $4 $5 $6 $7 $8 $9 X,Y pos of 4 corners*
0 Add a 4 corners polygon primitive as box body*
4,1,4,$2,$3,$4,$5,$6,$7,$8,$9,$2,$3,0*
0 Add four circle primitives for the rounded corners*
1,1,$1+$1,$2,$3*
1,1,$1+$1,$4,$5*
1,1,$1+$1,$6,$7*
1,1,$1+$1,$8,$9*
0 Add four rect primitives between the rounded corners*
20,1,$1+$1,$2,$3,$4,$5,0*
20,1,$1+$1,$4,$5,$6,$7,0*
20,1,$1+$1,$6,$7,$8,$9,0*
20,1,$1+$1,$8,$9,$2,$3,0*%
G04 Aperture macros list end*
%ADD10RoundRect,0.100000X-0.130000X-0.100000X0.130000X-0.100000X0.130000X0.100000X-0.130000X0.100000X0*%
%ADD11C,3.200000*%
%ADD12R,1.500000X1.500000*%
%ADD13C,1.500000*%
%ADD14RoundRect,0.140000X-0.140000X-0.170000X0.140000X-0.170000X0.140000X0.170000X-0.140000X0.170000X0*%
%ADD15RoundRect,0.100000X-0.637500X-0.100000X0.637500X-0.100000X0.637500X0.100000X-0.637500X0.100000X0*%
%ADD16C,2.200000*%
%ADD17C,1.000000*%
%ADD18RoundRect,0.100000X0.100000X-0.130000X0.100000X0.130000X-0.100000X0.130000X-0.100000X-0.130000X0*%
%ADD19RoundRect,0.140000X0.140000X0.170000X-0.140000X0.170000X-0.140000X-0.170000X0.140000X-0.170000X0*%
%ADD20RoundRect,0.135000X-0.185000X0.135000X-0.185000X-0.135000X0.185000X-0.135000X0.185000X0.135000X0*%
%ADD21RoundRect,0.135000X0.185000X-0.135000X0.185000X0.135000X-0.185000X0.135000X-0.185000X-0.135000X0*%
%ADD22RoundRect,0.135000X0.135000X0.185000X-0.135000X0.185000X-0.135000X-0.185000X0.135000X-0.185000X0*%
%ADD23C,1.700000*%
%ADD24R,2.800000X2.200000*%
%ADD25R,2.800000X2.800000*%
%ADD26RoundRect,0.250000X-0.650000X1.000000X-0.650000X-1.000000X0.650000X-1.000000X0.650000X1.000000X0*%
%ADD27RoundRect,0.200000X0.275000X-0.200000X0.275000X0.200000X-0.275000X0.200000X-0.275000X-0.200000X0*%
%ADD28RoundRect,0.100000X0.130000X0.100000X-0.130000X0.100000X-0.130000X-0.100000X0.130000X-0.100000X0*%
%ADD29RoundRect,0.375000X0.375000X-0.625000X0.375000X0.625000X-0.375000X0.625000X-0.375000X-0.625000X0*%
%ADD30RoundRect,0.500000X1.400000X-0.500000X1.400000X0.500000X-1.400000X0.500000X-1.400000X-0.500000X0*%
%ADD31R,0.850000X0.200000*%
%ADD32R,0.200000X0.850000*%
%ADD33R,3.450000X3.450000*%
%ADD34RoundRect,0.150000X0.587500X0.150000X-0.587500X0.150000X-0.587500X-0.150000X0.587500X-0.150000X0*%
%ADD35RoundRect,0.135000X-0.135000X-0.185000X0.135000X-0.185000X0.135000X0.185000X-0.135000X0.185000X0*%
%ADD36RoundRect,0.250000X0.650000X-1.000000X0.650000X1.000000X-0.650000X1.000000X-0.650000X-1.000000X0*%
%ADD37RoundRect,0.059250X0.462750X0.177750X-0.462750X0.177750X-0.462750X-0.177750X0.462750X-0.177750X0*%
%ADD38RoundRect,0.059250X0.177750X0.462750X-0.177750X0.462750X-0.177750X-0.462750X0.177750X-0.462750X0*%
%ADD39RoundRect,0.102000X1.725000X1.725000X-1.725000X1.725000X-1.725000X-1.725000X1.725000X-1.725000X0*%
%ADD40R,1.600000X1.600000*%
%ADD41C,1.600000*%
%ADD42C,4.000000*%
%ADD43RoundRect,0.102000X0.525000X0.650000X-0.525000X0.650000X-0.525000X-0.650000X0.525000X-0.650000X0*%
%ADD44R,1.000000X1.600000*%
%ADD45RoundRect,0.070000X0.650000X0.300000X-0.650000X0.300000X-0.650000X-0.300000X0.650000X-0.300000X0*%
%ADD46RoundRect,0.150000X-0.587500X-0.150000X0.587500X-0.150000X0.587500X0.150000X-0.587500X0.150000X0*%
%ADD47RoundRect,0.218750X0.256250X-0.218750X0.256250X0.218750X-0.256250X0.218750X-0.256250X-0.218750X0*%
G04 APERTURE END LIST*
D10*
%TO.C,C19*%
X17880000Y-51400000D03*
X18520000Y-51400000D03*
%TD*%
%TO.C,C14*%
X24680000Y-41600000D03*
X25320000Y-41600000D03*
%TD*%
D11*
%TO.C,J2*%
X51750000Y-20250000D03*
X40320000Y-20250000D03*
D12*
X50480000Y-26600000D03*
D13*
X49210000Y-29140000D03*
X47940000Y-26600000D03*
X46670000Y-29140000D03*
X45400000Y-26600000D03*
X44130000Y-29140000D03*
X42860000Y-26600000D03*
X41590000Y-29140000D03*
%TD*%
D14*
%TO.C,C9*%
X39540000Y-34300000D03*
X40500000Y-34300000D03*
%TD*%
D15*
%TO.C,U3*%
X33637500Y-35725000D03*
X33637500Y-36375000D03*
X33637500Y-37025000D03*
X33637500Y-37675000D03*
X33637500Y-38325000D03*
X33637500Y-38975000D03*
X33637500Y-39625000D03*
X33637500Y-40275000D03*
X39362500Y-40275000D03*
X39362500Y-39625000D03*
X39362500Y-38975000D03*
X39362500Y-38325000D03*
X39362500Y-37675000D03*
X39362500Y-37025000D03*
X39362500Y-36375000D03*
X39362500Y-35725000D03*
%TD*%
D16*
%TO.C,REF\u002A\u002A*%
X15000000Y-15000000D03*
%TD*%
D17*
%TO.C,TP3*%
X44100000Y-33900000D03*
%TD*%
D18*
%TO.C,C2*%
X28200000Y-44075000D03*
X28200000Y-43435000D03*
%TD*%
D19*
%TO.C,C6*%
X28500000Y-45600000D03*
X27540000Y-45600000D03*
%TD*%
D10*
%TO.C,C1*%
X42380000Y-51200000D03*
X43020000Y-51200000D03*
%TD*%
D20*
%TO.C,R9*%
X18700000Y-34190000D03*
X18700000Y-35210000D03*
%TD*%
D16*
%TO.C,REF\u002A\u002A*%
X57500000Y-15000000D03*
%TD*%
D21*
%TO.C,R14*%
X54800000Y-49320000D03*
X54800000Y-48300000D03*
%TD*%
%TO.C,R6*%
X44100000Y-49220000D03*
X44100000Y-48200000D03*
%TD*%
D22*
%TO.C,R10*%
X20020000Y-38400000D03*
X19000000Y-38400000D03*
%TD*%
D23*
%TO.C,CON2*%
X49000000Y-62500000D03*
X49000000Y-55500000D03*
D24*
X52700000Y-63600000D03*
D25*
X52700000Y-54200000D03*
D24*
X45300000Y-61600000D03*
%TD*%
D10*
%TO.C,C16*%
X31535000Y-34000000D03*
X32175000Y-34000000D03*
%TD*%
D17*
%TO.C,TP2*%
X31000000Y-38900000D03*
%TD*%
D15*
%TO.C,U2*%
X50700000Y-37050000D03*
X50700000Y-37700000D03*
X50700000Y-38350000D03*
X50700000Y-39000000D03*
X50700000Y-39650000D03*
X50700000Y-40300000D03*
X50700000Y-40950000D03*
X50700000Y-41600000D03*
X56425000Y-41600000D03*
X56425000Y-40950000D03*
X56425000Y-40300000D03*
X56425000Y-39650000D03*
X56425000Y-39000000D03*
X56425000Y-38350000D03*
X56425000Y-37700000D03*
X56425000Y-37050000D03*
%TD*%
D26*
%TO.C,D1*%
X15000000Y-46700000D03*
X15000000Y-50700000D03*
%TD*%
D27*
%TO.C,R15*%
X57900000Y-60025000D03*
X57900000Y-58375000D03*
%TD*%
D19*
%TO.C,C11*%
X56460000Y-36000000D03*
X55500000Y-36000000D03*
%TD*%
D21*
%TO.C,R2*%
X55700000Y-27910000D03*
X55700000Y-26890000D03*
%TD*%
D28*
%TO.C,C13*%
X21240000Y-40600000D03*
X20600000Y-40600000D03*
%TD*%
D29*
%TO.C,U4*%
X18200000Y-49550000D03*
X20500000Y-49550000D03*
D30*
X20500000Y-43250000D03*
D29*
X22800000Y-49550000D03*
%TD*%
D16*
%TO.C,REF\u002A\u002A*%
X57500000Y-65000000D03*
%TD*%
D17*
%TO.C,TP5*%
X54700000Y-45500000D03*
%TD*%
D19*
%TO.C,C4*%
X30080000Y-44600000D03*
X29120000Y-44600000D03*
%TD*%
D11*
%TO.C,J1*%
X32250000Y-20250000D03*
X20820000Y-20250000D03*
D12*
X30980000Y-26600000D03*
D13*
X29710000Y-29140000D03*
X28440000Y-26600000D03*
X27170000Y-29140000D03*
X25900000Y-26600000D03*
X24630000Y-29140000D03*
X23360000Y-26600000D03*
X22090000Y-29140000D03*
%TD*%
D31*
%TO.C,IC1*%
X40400000Y-49000000D03*
X40400000Y-48600000D03*
X40400000Y-48200000D03*
X40400000Y-47800000D03*
X40400000Y-47400000D03*
X40400000Y-47000000D03*
X40400000Y-46600000D03*
X40400000Y-46200000D03*
X40400000Y-45800000D03*
X40400000Y-45400000D03*
X40400000Y-45000000D03*
X40400000Y-44600000D03*
X40400000Y-44200000D03*
X40400000Y-43800000D03*
X40400000Y-43400000D03*
D32*
X39750000Y-42750000D03*
X39350000Y-42750000D03*
X38950000Y-42750000D03*
X38550000Y-42750000D03*
X38150000Y-42750000D03*
X37750000Y-42750000D03*
X37350000Y-42750000D03*
X36950000Y-42750000D03*
X36550000Y-42750000D03*
X36150000Y-42750000D03*
X35750000Y-42750000D03*
X35350000Y-42750000D03*
X34950000Y-42750000D03*
X34550000Y-42750000D03*
X34150000Y-42750000D03*
D31*
X33500000Y-43400000D03*
X33500000Y-43800000D03*
X33500000Y-44200000D03*
X33500000Y-44600000D03*
X33500000Y-45000000D03*
X33500000Y-45400000D03*
X33500000Y-45800000D03*
X33500000Y-46200000D03*
X33500000Y-46600000D03*
X33500000Y-47000000D03*
X33500000Y-47400000D03*
X33500000Y-47800000D03*
X33500000Y-48200000D03*
X33500000Y-48600000D03*
X33500000Y-49000000D03*
D32*
X34150000Y-49650000D03*
X34550000Y-49650000D03*
X34950000Y-49650000D03*
X35350000Y-49650000D03*
X35750000Y-49650000D03*
X36150000Y-49650000D03*
X36550000Y-49650000D03*
X36950000Y-49650000D03*
X37350000Y-49650000D03*
X37750000Y-49650000D03*
X38150000Y-49650000D03*
X38550000Y-49650000D03*
X38950000Y-49650000D03*
X39350000Y-49650000D03*
X39750000Y-49650000D03*
D33*
X36950000Y-46200000D03*
%TD*%
D22*
%TO.C,R13*%
X42910000Y-47000000D03*
X41890000Y-47000000D03*
%TD*%
D34*
%TO.C,Q3*%
X52837500Y-49250000D03*
X52837500Y-47350000D03*
X50962500Y-48300000D03*
%TD*%
D20*
%TO.C,R5*%
X57400000Y-44500000D03*
X57400000Y-45520000D03*
%TD*%
D12*
%TO.C,SW1*%
X40000000Y-55750000D03*
X40000000Y-63550000D03*
%TD*%
D20*
%TO.C,R12*%
X25000000Y-48990000D03*
X25000000Y-50010000D03*
%TD*%
D35*
%TO.C,R7*%
X39680000Y-32900000D03*
X40700000Y-32900000D03*
%TD*%
D36*
%TO.C,D2*%
X15000000Y-43400000D03*
X15000000Y-39400000D03*
%TD*%
D22*
%TO.C,R1*%
X32400000Y-50600000D03*
X31380000Y-50600000D03*
%TD*%
D37*
%TO.C,U1*%
X27635000Y-38925000D03*
X27635000Y-38425000D03*
X27635000Y-37925000D03*
X27635000Y-37425000D03*
X27635000Y-36925000D03*
X27635000Y-36425000D03*
X27635000Y-35925000D03*
X27635000Y-35425000D03*
D38*
X26950000Y-34740000D03*
X26450000Y-34740000D03*
X25950000Y-34740000D03*
X25450000Y-34740000D03*
X24950000Y-34740000D03*
X24450000Y-34740000D03*
X23950000Y-34740000D03*
X23450000Y-34740000D03*
D37*
X22765000Y-35425000D03*
X22765000Y-35925000D03*
X22765000Y-36425000D03*
X22765000Y-36925000D03*
X22765000Y-37425000D03*
X22765000Y-37925000D03*
X22765000Y-38425000D03*
X22765000Y-38925000D03*
D38*
X23450000Y-39610000D03*
X23950000Y-39610000D03*
X24450000Y-39610000D03*
X24950000Y-39610000D03*
X25450000Y-39610000D03*
X25950000Y-39610000D03*
X26450000Y-39610000D03*
X26950000Y-39610000D03*
D39*
X25200000Y-37175000D03*
%TD*%
D14*
%TO.C,C21*%
X30720000Y-47700000D03*
X31680000Y-47700000D03*
%TD*%
D10*
%TO.C,C15*%
X20160000Y-35500000D03*
X20800000Y-35500000D03*
%TD*%
D40*
%TO.C,J3*%
X27300000Y-56500000D03*
D41*
X24800000Y-56500000D03*
X24800000Y-58500000D03*
X27300000Y-58500000D03*
D42*
X32050000Y-61360000D03*
X20050000Y-61360000D03*
%TD*%
D20*
%TO.C,R11*%
X26500000Y-48990000D03*
X26500000Y-50010000D03*
%TD*%
D18*
%TO.C,C3*%
X30500000Y-50940000D03*
X30500000Y-50300000D03*
%TD*%
D17*
%TO.C,TP4*%
X56000000Y-23600000D03*
%TD*%
D22*
%TO.C,R4*%
X58820000Y-34400000D03*
X57800000Y-34400000D03*
%TD*%
D17*
%TO.C,TP1*%
X31000000Y-36600000D03*
%TD*%
D43*
%TO.C,Y1*%
X46040000Y-42850000D03*
X46040000Y-40550000D03*
X44290000Y-40550000D03*
X44290000Y-42850000D03*
%TD*%
D16*
%TO.C,REF\u002A\u002A*%
X15000000Y-65000000D03*
%TD*%
D22*
%TO.C,R3*%
X56220000Y-34800000D03*
X55200000Y-34800000D03*
%TD*%
D14*
%TO.C,C20*%
X29120000Y-33300000D03*
X30080000Y-33300000D03*
%TD*%
D28*
%TO.C,C17*%
X20720000Y-32900000D03*
X20080000Y-32900000D03*
%TD*%
%TO.C,C12*%
X26420000Y-43000000D03*
X25780000Y-43000000D03*
%TD*%
D20*
%TO.C,R8*%
X49500000Y-32090000D03*
X49500000Y-33110000D03*
%TD*%
D44*
%TO.C,L1*%
X34700000Y-52200000D03*
X36700000Y-52200000D03*
%TD*%
D14*
%TO.C,C8*%
X44700000Y-38700000D03*
X45660000Y-38700000D03*
%TD*%
D45*
%TO.C,Q1*%
X53450000Y-34650000D03*
X53450000Y-32750000D03*
X51350000Y-33700000D03*
%TD*%
D14*
%TO.C,C5*%
X42040000Y-49900000D03*
X43000000Y-49900000D03*
%TD*%
D19*
%TO.C,C10*%
X45680000Y-44900000D03*
X44720000Y-44900000D03*
%TD*%
D45*
%TO.C,Q2*%
X57500000Y-32350000D03*
X57500000Y-30450000D03*
X55400000Y-31400000D03*
%TD*%
D46*
%TO.C,Q4*%
X45800000Y-47400000D03*
X45800000Y-49300000D03*
X47675000Y-48350000D03*
%TD*%
D47*
%TO.C,D3*%
X57900000Y-56587500D03*
X57900000Y-55012500D03*
%TD*%
D17*
%TO.C,TP6*%
X42500000Y-38500000D03*
%TD*%
D10*
%TO.C,C18*%
X25800000Y-45600000D03*
X26440000Y-45600000D03*
%TD*%
M02*
